<svg width="900" height="728" viewBox="0 0 900 728" fill="none" xmlns="http://www.w3.org/2000/svg">
<g clip-path="url(#clip0)">
<path d="M724.768 434.229L714.165 451.118C712.728 453.407 710.64 455.024 708.276 455.68C705.911 456.336 703.425 455.988 701.26 454.697V454.697C699.666 453.748 698.314 452.327 697.337 450.576C696.36 448.825 695.793 446.806 695.693 444.719C695.592 442.633 695.962 440.552 696.765 438.684C697.567 436.817 698.775 435.227 700.267 434.075L713.789 423.635L752.454 378.471L756.75 362.301H785.867L770.593 400.774L724.768 434.229Z" fill="#FFB8B8"/>
<path d="M406.051 433.25C404.705 433.252 403.414 433.877 402.462 434.989C401.51 436.101 400.975 437.609 400.973 439.181V720.315C400.975 721.887 401.51 723.395 402.462 724.507C403.414 725.619 404.705 726.244 406.051 726.246H731.016C732.362 726.244 733.652 725.619 734.604 724.507C735.556 723.395 736.092 721.887 736.093 720.315V439.181C736.092 437.609 735.556 436.101 734.604 434.989C733.652 433.877 732.362 433.252 731.016 433.25H406.051Z" fill="#E6E6E6"/>
<path d="M415.088 710.201H721.979V449.295H415.088V710.201Z" fill="white"/>
<path d="M678.717 523.996H493.893C492.142 523.996 490.463 524.808 489.225 526.254C487.987 527.7 487.292 529.661 487.292 531.706C487.292 533.751 487.987 535.712 489.225 537.158C490.463 538.604 492.142 539.417 493.893 539.417H678.717C680.467 539.417 682.146 538.604 683.384 537.158C684.622 535.712 685.317 533.751 685.317 531.706C685.317 529.661 684.622 527.7 683.384 526.254C682.146 524.808 680.467 523.996 678.717 523.996Z" fill="#E6E6E6"/>
<path d="M493.893 571.444C492.142 571.444 490.463 572.257 489.225 573.703C487.987 575.149 487.292 577.11 487.292 579.155C487.292 581.2 487.987 583.161 489.225 584.607C490.463 586.053 492.142 586.865 493.893 586.865H678.717C680.467 586.865 682.146 586.053 683.384 584.607C684.622 583.161 685.317 581.2 685.317 579.155C685.317 577.11 684.622 575.149 683.384 573.703C682.146 572.257 680.467 571.444 678.717 571.444H493.893Z" fill="#E6E6E6"/>
<path d="M493.893 618.893C492.144 618.896 490.467 619.709 489.231 621.155C487.995 622.601 487.301 624.56 487.301 626.604C487.301 628.647 487.995 630.607 489.231 632.052C490.467 633.498 492.144 634.311 493.893 634.314H678.717C680.466 634.311 682.142 633.498 683.379 632.052C684.615 630.607 685.309 628.647 685.309 626.604C685.309 624.56 684.615 622.601 683.379 621.155C682.142 619.709 680.466 618.896 678.717 618.893H493.893Z" fill="#E6E6E6"/>
<path d="M458.858 541.789C463.344 541.789 466.982 537.54 466.982 532.299C466.982 527.058 463.344 522.81 458.858 522.81C454.371 522.81 450.734 527.058 450.734 532.299C450.734 537.54 454.371 541.789 458.858 541.789Z" fill="#F29544"/>
<path d="M458.858 589.238C463.344 589.238 466.982 584.989 466.982 579.748C466.982 574.507 463.344 570.258 458.858 570.258C454.371 570.258 450.734 574.507 450.734 579.748C450.734 584.989 454.371 589.238 458.858 589.238Z" fill="#E6E6E6"/>
<path d="M458.858 636.687C463.344 636.687 466.982 632.438 466.982 627.197C466.982 621.956 463.344 617.707 458.858 617.707C454.371 617.707 450.734 621.956 450.734 627.197C450.734 632.438 454.371 636.687 458.858 636.687Z" fill="#E6E6E6"/>
<path d="M605.092 531.706C605.092 533.751 604.396 535.712 603.158 537.158C601.921 538.604 600.242 539.417 598.491 539.417H494.131C492.5 539.445 490.916 538.783 489.67 537.555C488.424 536.326 487.6 534.613 487.349 532.731C487.226 531.642 487.303 530.534 487.576 529.483C487.848 528.432 488.309 527.46 488.929 526.633C489.548 525.807 490.311 525.144 491.167 524.689C492.023 524.234 492.952 523.998 493.893 523.996H598.491C599.358 523.996 600.216 524.195 601.017 524.583C601.818 524.97 602.546 525.538 603.158 526.254C603.771 526.97 604.258 527.82 604.589 528.756C604.921 529.691 605.092 530.694 605.092 531.706V531.706Z" fill="#F29544"/>
<path d="M568.533 400.036C583.115 400.036 594.937 386.227 594.937 369.194C594.937 352.161 583.115 338.352 568.533 338.352C553.951 338.352 542.13 352.161 542.13 369.194C542.13 386.227 553.951 400.036 568.533 400.036Z" fill="#E6E6E6"/>
<path d="M568.533 384.615C575.824 384.615 581.735 377.711 581.735 369.194C581.735 360.677 575.824 353.773 568.533 353.773C561.242 353.773 555.332 360.677 555.332 369.194C555.332 377.711 561.242 384.615 568.533 384.615Z" fill="white"/>
<path d="M863.197 679.563L849.831 686.812L829.521 641.733C816.983 619.296 808.799 592.408 803.052 563.029L824.055 564.702C836.558 585.549 845.824 606.45 848.81 627.457L863.197 679.563Z" fill="#FFB8B8"/>
<path d="M828.351 570.278H801.62V516.192L823.1 511.732L828.351 570.278Z" fill="#2F2E41"/>
<path d="M793.999 366.254C780.975 363.353 767.651 362.767 754.477 364.514L762.203 319.508C762.943 315.194 764.822 311.259 767.574 308.256C770.327 305.253 773.816 303.332 777.551 302.764V302.764C780.26 302.351 783.013 302.663 785.604 303.676C788.194 304.688 790.554 306.375 792.505 308.609C794.455 310.843 795.946 313.565 796.864 316.571C797.782 319.576 798.103 322.786 797.804 325.958L793.999 366.254Z" fill="#F29544"/>
<path d="M775.127 273.925C787.518 273.925 797.562 262.192 797.562 247.718C797.562 233.245 787.518 221.512 775.127 221.512C762.737 221.512 752.692 233.245 752.692 247.718C752.692 262.192 762.737 273.925 775.127 273.925Z" fill="#FFB8B8"/>
<path d="M809.735 278.106L780.139 302.64L772.263 258.87L794.46 248.555C795.359 260.03 800.665 269.797 809.735 278.106Z" fill="#FFB8B8"/>
<path d="M797.562 244.931C795.903 240.936 793.825 243.708 791.98 248.58L789.333 236.212L786.156 234.975L784.039 225.08C774.325 222.371 766.531 228.039 756.511 234.337L752.692 244.931C751.167 241.293 750.366 237.3 750.347 233.25C750.328 229.199 751.093 225.196 752.584 221.54C754.075 217.883 756.255 214.667 758.959 212.132C761.663 209.597 764.823 207.808 768.202 206.9C769.865 206.463 771.562 206.233 773.266 206.214V206.214C776.508 206.175 779.723 206.901 782.718 208.351C785.713 209.8 788.427 211.942 790.695 214.647C792.964 217.353 794.74 220.566 795.918 224.094C797.096 227.622 797.652 231.392 797.55 235.177L797.562 244.931Z" fill="#2F2E41"/>
<path d="M867.072 700.945L821.403 718.345C819.855 718.732 818.24 718.489 816.826 717.656C815.412 716.824 814.284 715.452 813.628 713.769V713.769C812.953 712.03 812.824 710.069 813.264 708.23C813.705 706.391 814.686 704.792 816.035 703.715C825.042 696.512 832.22 688.828 835.511 680.121C838.554 665.683 841.993 665.65 845.73 676.422C856.049 683.553 854.382 677.842 860.81 668.969L870.719 690.878C871.137 691.803 871.374 692.825 871.412 693.871C871.451 694.916 871.29 695.959 870.941 696.922C870.592 697.886 870.063 698.747 869.394 699.443C868.725 700.138 867.932 700.652 867.072 700.945V700.945Z" fill="#2F2E41"/>
<path d="M759.136 713.576L743.862 705.77L749.337 660.059L760.091 570.278L789.209 574.739C788.582 605.916 781.951 636.528 769.809 664.302L759.136 713.576Z" fill="#FFB8B8"/>
<path d="M808.78 584.217L758.182 572.508L771.547 490.544L769.161 468.241H835.511C833.091 497.116 821.545 539.747 808.78 584.217Z" fill="#2F2E41"/>
<path d="M837.898 476.047C813.406 468.806 789.314 467.781 765.819 476.047C761.424 423.146 760.215 372.702 764.061 326.155C764.977 314.883 769.639 304.48 777.048 297.179L804.961 269.743L825.688 281.848C828.364 283.411 830.623 285.798 832.222 288.752C833.821 291.705 834.699 295.113 834.761 298.607C839.286 368.982 842.755 435.951 837.898 476.047Z" fill="#F29544"/>
<path d="M862.242 467.126L866.415 484.186C866.849 485.96 866.955 487.823 866.727 489.65C866.499 491.476 865.942 493.226 865.092 494.782C864.242 496.338 863.118 497.666 861.796 498.677C860.474 499.688 858.983 500.36 857.422 500.648V500.648C855.707 500.964 853.953 500.809 852.299 500.194C850.644 499.58 849.135 498.523 847.892 497.108C846.648 495.693 845.704 493.959 845.135 492.043C844.566 490.127 844.387 488.083 844.613 486.072L846.49 469.356L836.466 384.604L823.1 351.149L849.831 337.21L860.81 379.028L862.242 467.126Z" fill="#FFB8B8"/>
<path d="M754.267 727.759L707.488 714.999C705.993 714.393 704.719 713.207 703.879 711.64C703.039 710.072 702.682 708.216 702.869 706.379V706.379C703.063 704.484 703.822 702.728 705.015 701.422C706.207 700.115 707.755 699.342 709.387 699.237C720.286 698.529 729.834 696.301 736.511 690.846C745.518 680.339 748.474 682.392 746.892 693.867C752.555 706.212 753.662 700.318 763.095 696.62L761.852 721.356C761.799 722.4 761.548 723.418 761.117 724.336C760.687 725.253 760.086 726.047 759.36 726.66C758.634 727.273 757.801 727.689 756.92 727.879C756.039 728.069 755.133 728.028 754.267 727.759Z" fill="#2F2E41"/>
<path d="M854.127 341.113C842.825 342.201 830.495 349.849 817.849 359.513L808.149 315.031C807.22 310.767 807.456 306.271 808.826 302.172C810.196 298.074 812.63 294.579 815.787 292.18V292.18C818.077 290.439 820.675 289.329 823.386 288.933C826.096 288.537 828.849 288.866 831.435 289.895C834.021 290.923 836.373 292.625 838.313 294.871C840.254 297.116 841.732 299.848 842.636 302.859L854.127 341.113Z" fill="#F29544"/>
<path d="M5.03204 95.809C3.69793 95.8108 2.41891 96.4306 1.47556 97.5326C0.532202 98.6345 0.00155263 100.129 0 101.687V380.297C0.00155263 381.855 0.532202 383.349 1.47556 384.451C2.41891 385.553 3.69793 386.173 5.03204 386.175H327.08C328.414 386.173 329.693 385.553 330.636 384.451C331.579 383.349 332.11 381.855 332.111 380.297V101.687C332.11 100.128 331.579 98.6345 330.636 97.5325C329.693 96.4306 328.414 95.8107 327.08 95.8089L5.03204 95.809Z" fill="#E6E6E6"/>
<path d="M12.61 371.445H319.501V110.539H12.61V371.445Z" fill="white"/>
<path d="M42.7719 233.663C41.037 233.663 39.3731 234.468 38.1463 235.901C36.9196 237.334 36.2303 239.277 36.2303 241.304C36.2303 243.331 36.9196 245.274 38.1463 246.707C39.3731 248.14 41.037 248.945 42.7719 248.945H289.34C291.075 248.945 292.738 248.14 293.965 246.707C295.192 245.274 295.881 243.331 295.881 241.304C295.881 239.277 295.192 237.334 293.965 235.901C292.738 234.468 291.075 233.663 289.34 233.663H42.7719Z" fill="#E6E6E6"/>
<path d="M42.7719 280.686C41.037 280.686 39.3731 281.491 38.1463 282.924C36.9196 284.357 36.2303 286.3 36.2303 288.327C36.2303 290.354 36.9196 292.297 38.1463 293.73C39.3731 295.163 41.037 295.968 42.7719 295.968H289.34C291.075 295.968 292.738 295.163 293.965 293.73C295.192 292.297 295.881 290.354 295.881 288.327C295.881 286.3 295.192 284.357 293.965 282.924C292.738 281.491 291.075 280.686 289.34 280.686H42.7719Z" fill="#E6E6E6"/>
<path d="M152.973 330.06C151.238 330.06 149.574 330.865 148.347 332.298C147.12 333.731 146.431 335.674 146.431 337.701C146.431 339.727 147.12 341.671 148.347 343.104C149.574 344.537 151.238 345.342 152.973 345.342H179.139C180.874 345.342 182.538 344.537 183.765 343.104C184.991 341.671 185.681 339.727 185.681 337.701C185.681 335.674 184.991 333.731 183.765 332.298C182.538 330.865 180.874 330.06 179.139 330.06H152.973Z" fill="#F29544"/>
<path d="M130.993 136.636C130.459 136.637 129.948 136.885 129.57 137.326C129.193 137.767 128.981 138.364 128.98 138.988V198.671C128.981 199.295 129.193 199.892 129.57 200.333C129.948 200.774 130.459 201.022 130.993 201.022H201.119C201.652 201.022 202.164 200.774 202.541 200.333C202.919 199.892 203.131 199.295 203.131 198.671V138.988C203.131 138.364 202.919 137.767 202.541 137.326C202.164 136.885 201.652 136.637 201.119 136.636H130.993Z" fill="#F29544"/>
<path d="M166.056 175.16C172.17 175.16 177.126 169.37 177.126 162.229C177.126 155.087 172.17 149.297 166.056 149.297C159.942 149.297 154.985 155.087 154.985 162.229C154.985 169.37 159.942 175.16 166.056 175.16Z" fill="white"/>
<path d="M184.171 195.145C184.175 197.188 183.761 199.204 182.963 201.023H149.148C148.287 199.051 147.873 196.854 147.946 194.642C148.019 192.43 148.578 190.277 149.568 188.39C150.557 186.502 151.946 184.943 153.599 183.861C155.253 182.78 157.116 182.213 159.011 182.213H173.101C174.555 182.212 175.995 182.546 177.338 183.196C178.682 183.845 179.902 184.798 180.93 185.999C181.959 187.2 182.774 188.626 183.33 190.195C183.886 191.764 184.172 193.446 184.171 195.145V195.145Z" fill="white"/>
<path d="M166.056 175.16C172.17 175.16 177.126 169.37 177.126 162.229C177.126 155.087 172.17 149.297 166.056 149.297C159.942 149.297 154.985 155.087 154.985 162.229C154.985 169.37 159.942 175.16 166.056 175.16Z" fill="white"/>
<path d="M184.171 195.145C184.175 197.188 183.761 199.204 182.963 201.023H149.148C148.287 199.051 147.873 196.854 147.946 194.642C148.019 192.43 148.578 190.277 149.568 188.39C150.557 186.502 151.946 184.943 153.599 183.861C155.253 182.78 157.116 182.213 159.011 182.213H173.101C174.555 182.212 175.995 182.546 177.338 183.196C178.682 183.845 179.902 184.798 180.93 185.999C181.959 187.2 182.774 188.626 183.33 190.195C183.886 191.764 184.172 193.446 184.171 195.145V195.145Z" fill="white"/>
<path d="M166.056 61.1296C180.507 61.1296 192.222 47.4453 192.222 30.5648C192.222 13.6843 180.507 0 166.056 0C151.605 0 139.889 13.6843 139.889 30.5648C139.889 47.4453 151.605 61.1296 166.056 61.1296Z" fill="#E6E6E6"/>
<path d="M166.056 45.8473C173.281 45.8473 179.139 39.0051 179.139 30.5649C179.139 22.1246 173.281 15.2825 166.056 15.2825C158.83 15.2825 152.973 22.1246 152.973 30.5649C152.973 39.0051 158.83 45.8473 166.056 45.8473Z" fill="#F29544"/>
<path d="M899.567 727.144H270.061V724.351H900L899.567 727.144Z" fill="#3F3D56"/>
</g>
<defs>
<clipPath id="clip0">
<rect width="900" height="728" fill="white"/>
</clipPath>
</defs>
</svg>
