<svg width="653" height="548" viewBox="0 0 653 548" fill="none" xmlns="http://www.w3.org/2000/svg">
<g clip-path="url(#clip0)">
<path d="M333.5 546.839C353.14 546.839 369.062 527.879 369.062 504.491C369.062 481.103 353.14 462.143 333.5 462.143C313.86 462.143 297.939 481.103 297.939 504.491C297.939 527.879 313.86 546.839 333.5 546.839Z" fill="#F29544"/>
<path d="M545.947 544.459C565.842 537.344 586.993 529.925 602.771 513.011C616.87 497.896 626.389 474.816 620.548 452.148C614.719 429.527 597.259 414.444 579.233 406.942C569.009 402.687 558.313 400.326 547.621 398.472C535.998 396.456 524.323 394.804 512.654 393.215C465.405 386.78 417.979 382.848 370.374 381.421C346.884 380.717 323.399 380.734 299.906 381.14C278.925 381.502 256.829 381.493 237.365 370.875C222.229 362.617 208.492 347.594 204.275 327.851C199.406 305.062 208.386 281.855 221.267 265.35C228.057 256.65 235.992 249.328 244.178 242.595C253.059 235.291 262.249 228.504 271.638 222.168C290.131 209.697 309.465 199.083 329.439 190.437C339.292 186.17 349.292 182.489 359.378 179.093C367.895 176.226 376.439 173.355 384.67 169.448C400.583 161.895 415.718 149.103 419.764 128.13C423.598 108.253 417.133 86.6744 405.798 71.908C392.685 54.8243 372.912 47.3354 353.955 46.1237C332.674 44.7634 311.883 51.106 291.88 59.1556C270.545 67.7412 249.671 77.613 227.886 84.5673C206.283 91.4565 184.262 96.331 162.023 99.1465C151.136 100.527 139.92 102.086 128.969 101.029C119.791 100.143 110.659 96.9287 103.895 89.1718C98.0947 82.5207 94.6396 73.3798 95.8275 63.7333C96.0432 61.9813 98.2783 62.7261 98.0639 64.4676C96.6179 76.21 103.321 87.0303 111.58 92.5729C121.127 98.9788 132.743 98.9875 143.371 98.2549C166.415 96.5975 189.304 92.6573 211.799 86.4752C233.904 80.4631 255.219 71.8686 276.509 62.6877C296.73 53.9681 317.402 45.4578 339.005 43.5692C357.749 41.9305 377.467 45.1823 393.796 56.8472C408.147 67.099 418.701 84.1958 422.063 103.815C425.349 122.986 420.798 142.282 408.612 155.66C395.994 169.512 378.693 175.434 362.57 180.888C342.12 187.806 322.109 195.892 302.74 206.392C283.106 217.004 264.276 229.611 246.459 244.07C229.261 258.066 212.289 275.675 206.85 300.643C204.316 312.273 204.784 324.608 209.023 335.593C212.793 345.361 219.001 353.577 226.233 359.914C243.489 375.034 265.237 378.139 286.08 378.448C309.49 378.795 332.901 377.854 356.318 378.312C404.042 379.244 451.669 382.703 499.198 388.689C511.107 390.19 523.002 391.85 534.881 393.667C545.566 395.302 556.287 396.926 566.793 399.83C585.472 404.993 603.648 414.92 615.258 433.78C620.411 441.955 623.603 451.642 624.494 461.809C625.307 472.418 623.126 483.046 619.098 492.484C610.183 513.373 593.483 526.66 575.749 535.389C566.25 540.064 556.397 543.606 546.564 547.123C545.131 547.635 544.519 544.97 545.947 544.459L545.947 544.459Z" fill="#F2F2F2"/>
<path d="M97.3249 86.0764C107.572 86.0764 115.879 76.1844 115.879 63.9819C115.879 51.7795 107.572 41.8875 97.3249 41.8875C87.0779 41.8875 78.771 51.7795 78.771 63.9819C78.771 76.1844 87.0779 86.0764 97.3249 86.0764Z" fill="#F2F2F2"/>
<path d="M226.042 127.964C236.289 127.964 244.596 118.072 244.596 105.869C244.596 93.6669 236.289 83.7749 226.042 83.7749C215.795 83.7749 207.489 93.6669 207.489 105.869C207.489 118.072 215.795 127.964 226.042 127.964Z" fill="#F2F2F2"/>
<path d="M335.047 44.189C345.294 44.189 353.6 34.2969 353.6 22.0945C353.6 9.89204 345.294 0 335.047 0C324.8 0 316.493 9.89204 316.493 22.0945C316.493 34.2969 324.8 44.189 335.047 44.189Z" fill="#F2F2F2"/>
<path d="M403.077 138.091C413.324 138.091 421.631 128.199 421.631 115.996C421.631 103.794 413.324 93.9016 403.077 93.9016C392.83 93.9016 384.523 103.794 384.523 115.996C384.523 128.199 392.83 138.091 403.077 138.091Z" fill="#F2F2F2"/>
<path d="M311.081 246.722C321.328 246.722 329.635 236.83 329.635 224.627C329.635 212.425 321.328 202.533 311.081 202.533C300.834 202.533 292.527 212.425 292.527 224.627C292.527 236.83 300.834 246.722 311.081 246.722Z" fill="#F2F2F2"/>
<path d="M194.346 299.196C204.593 299.196 212.9 289.304 212.9 277.102C212.9 264.899 204.593 255.007 194.346 255.007C184.099 255.007 175.792 264.899 175.792 277.102C175.792 289.304 184.099 299.196 194.346 299.196Z" fill="#F2F2F2"/>
<path d="M318.039 381.13C328.286 381.13 336.593 371.238 336.593 359.035C336.593 346.833 328.286 336.941 318.039 336.941C307.792 336.941 299.485 346.833 299.485 359.035C299.485 371.238 307.792 381.13 318.039 381.13Z" fill="#F2F2F2"/>
<path d="M451.008 427.16C461.255 427.16 469.562 417.268 469.562 405.066C469.562 392.863 461.255 382.971 451.008 382.971C440.761 382.971 432.454 392.863 432.454 405.066C432.454 417.268 440.761 427.16 451.008 427.16Z" fill="#F2F2F2"/>
<path d="M606.397 417.033C616.644 417.033 624.951 407.141 624.951 394.939C624.951 382.737 616.644 372.844 606.397 372.844C596.15 372.844 587.843 382.737 587.843 394.939C587.843 407.141 596.15 417.033 606.397 417.033Z" fill="#F2F2F2"/>
<path d="M329.691 62.6041C274.113 63.0716 228.606 116.855 227.817 183.034C227.81 183.645 227.806 187.941 227.807 193.561C227.807 201.799 230.556 209.701 235.448 215.527C240.34 221.353 246.975 224.626 253.893 224.627H253.893C257.323 224.626 260.719 223.821 263.887 222.256C267.055 220.692 269.933 218.4 272.357 215.51C274.781 212.621 276.703 209.191 278.013 205.416C279.324 201.642 279.996 197.597 279.993 193.513C279.991 189.69 279.989 187.045 279.989 186.882C279.987 176.655 282.221 166.602 286.472 157.715C290.722 148.827 296.842 141.409 304.229 136.192C311.617 130.975 320.017 128.138 328.605 127.96C337.192 127.782 345.671 130.269 353.207 135.177C360.742 140.084 367.075 147.243 371.583 155.949C376.09 164.656 378.617 174.609 378.914 184.831C379.211 195.053 377.269 205.19 373.278 214.247C369.287 223.304 363.385 230.967 356.153 236.484L356.162 236.497C356.162 236.497 319.032 264.962 307.713 304.01L307.722 304.013C305.732 312.012 304.723 320.312 304.728 328.655C304.728 332.085 304.897 362.093 305.224 386.449C305.339 394.853 308.223 402.866 313.255 408.76C318.286 414.654 325.062 417.956 332.12 417.954H332.12C335.666 417.954 339.178 417.119 342.452 415.496C345.726 413.874 348.699 411.497 351.199 408.501C353.699 405.506 355.677 401.951 357.019 398.042C358.361 394.133 359.04 389.946 359.018 385.723C358.905 363.418 358.843 337.445 358.843 335.56C358.843 311.583 378.267 287.693 394.222 272.114C412.595 254.175 425.816 229.727 431.126 202.149C432.302 196.472 432.949 190.657 433.059 184.811C433.059 168.688 430.379 152.724 425.176 137.839C419.972 122.955 412.346 109.443 402.738 98.0839C393.129 86.7244 381.728 77.7412 369.191 71.6519C356.655 65.5627 343.23 62.4877 329.691 62.6041Z" fill="#F29544"/>
<path d="M652.079 548H0.920515C0.676848 547.999 0.443406 547.883 0.271357 547.678C0.0993067 547.472 0.00268555 547.194 0.00268555 546.904C0.00268555 546.614 0.0993067 546.335 0.271357 546.13C0.443406 545.924 0.676848 545.809 0.920515 545.808H652.079C652.324 545.808 652.558 545.923 652.73 546.129C652.903 546.334 653 546.613 653 546.904C653 547.195 652.903 547.473 652.73 547.679C652.558 547.885 652.324 548 652.079 548Z" fill="#3F3D56"/>
<path d="M485.84 251.321C498.649 251.321 509.032 238.956 509.032 223.703C509.032 208.45 498.649 196.085 485.84 196.085C473.031 196.085 462.648 208.45 462.648 223.703C462.648 238.956 473.031 251.321 485.84 251.321Z" fill="#2F2E41"/>
<path d="M442.983 535.91H433.506L428.997 492.377H442.985L442.983 535.91Z" fill="#A0616A"/>
<path d="M426.736 532.685H445.014V546.39H415.227C415.227 544.59 415.525 542.808 416.103 541.145C416.681 539.482 417.529 537.972 418.598 536.699C419.667 535.426 420.935 534.417 422.332 533.728C423.728 533.039 425.224 532.685 426.736 532.685Z" fill="#2F2E41"/>
<path d="M516.426 535.91H506.948L502.439 492.377H516.428L516.426 535.91Z" fill="#A0616A"/>
<path d="M500.178 532.685H518.457V546.39H488.669C488.669 544.59 488.967 542.808 489.545 541.145C490.124 539.482 490.972 537.972 492.04 536.699C493.109 535.426 494.378 534.417 495.774 533.728C497.17 533.039 498.667 532.685 500.178 532.685Z" fill="#2F2E41"/>
<path d="M482.315 251.482C492.802 251.482 501.303 241.359 501.303 228.871C501.303 216.384 492.802 206.26 482.315 206.26C471.829 206.26 463.328 216.384 463.328 228.871C463.328 241.359 471.829 251.482 482.315 251.482Z" fill="#A0616A"/>
<path d="M493.633 324.426L502.129 301.181C504.192 295.728 504.783 289.647 503.821 283.776C502.859 277.906 500.39 272.536 496.756 268.407C496.009 267.529 495.217 266.708 494.382 265.949C490.19 262.044 485.024 259.916 479.702 259.901C476.123 259.918 472.59 260.853 469.343 262.644C469.064 262.792 468.794 262.948 468.515 263.105C467.982 263.409 467.456 263.74 466.946 264.081C463.618 266.356 460.785 269.531 458.677 273.35C456.569 277.169 455.244 281.524 454.809 286.065L451.059 323.478C450.116 326.415 416.472 432.468 428.238 513.435C428.363 514.3 428.717 515.094 429.249 515.702C429.78 516.31 430.461 516.7 431.191 516.814L443.12 518.747C443.991 518.889 444.875 518.633 445.593 518.03C446.312 517.427 446.812 516.522 446.993 515.497L467.008 401.886C467.133 401.18 467.452 400.544 467.916 400.08C468.38 399.616 468.961 399.351 469.567 399.326C470.172 399.302 470.767 399.52 471.256 399.946C471.745 400.371 472.1 400.98 472.265 401.674L500.544 521.15C500.745 522.018 501.18 522.783 501.782 523.329C502.384 523.874 503.12 524.17 503.876 524.17C504.101 524.168 504.327 524.143 504.549 524.096L519.121 520.754C519.968 520.566 520.725 520.007 521.245 519.188C521.764 518.369 522.007 517.348 521.927 516.326C519.786 487.889 508.406 345.444 493.633 324.426Z" fill="#2F2E41"/>
<path d="M408.525 247.688C408.393 249.033 408.511 250.395 408.869 251.679C409.227 252.964 409.817 254.139 410.598 255.122C411.379 256.106 412.331 256.873 413.388 257.371C414.445 257.868 415.581 258.084 416.715 258.002L427.329 288.375L435.357 274.203L424.048 247.533C423.806 245.273 422.877 243.196 421.436 241.698C419.995 240.199 418.142 239.381 416.228 239.4C414.315 239.42 412.474 240.274 411.054 241.801C409.635 243.329 408.735 245.423 408.525 247.688L408.525 247.688Z" fill="#A0616A"/>
<path d="M481.263 355.009C482.391 354.848 483.476 354.395 484.442 353.681C485.407 352.967 486.229 352.01 486.85 350.876C487.471 349.743 487.876 348.461 488.036 347.121C488.196 345.781 488.108 344.416 487.777 343.121L510.108 323.753L496.664 317.758L477.519 337.069C475.729 337.875 474.25 339.435 473.362 341.454C472.474 343.472 472.238 345.808 472.699 348.019C473.161 350.23 474.288 352.163 475.866 353.452C477.444 354.74 479.364 355.294 481.263 355.009Z" fill="#A0616A"/>
<path d="M444.86 308.624C444.004 308.623 443.15 308.523 442.31 308.325C440.279 307.864 438.374 306.816 436.763 305.272C435.152 303.728 433.885 301.737 433.073 299.472L418.204 277.881C417.889 277.424 417.661 276.893 417.533 276.323C417.405 275.753 417.381 275.156 417.462 274.574C417.543 273.992 417.728 273.437 418.004 272.946C418.28 272.456 418.641 272.042 419.063 271.731L429.642 263.933C430.032 263.645 430.467 263.452 430.921 263.365C431.374 263.278 431.838 263.299 432.284 263.426C432.731 263.554 433.152 263.785 433.523 264.108C433.894 264.43 434.208 264.837 434.447 265.304L444.927 285.865L464.997 268.202C466.595 267.204 468.441 266.924 470.198 267.414C471.955 267.903 473.506 269.129 474.566 270.867C475.627 272.605 476.127 274.739 475.976 276.88C475.824 279.021 475.031 281.026 473.74 282.528L453.709 304.288C451.355 307.067 448.174 308.625 444.86 308.624Z" fill="#2F2E41"/>
<path d="M499.091 341.096C499.064 341.096 499.037 341.096 499.01 341.095C498.522 341.081 498.042 340.945 497.601 340.696C497.16 340.447 496.768 340.09 496.45 339.65L487.045 326.583C486.724 326.138 486.487 325.617 486.348 325.055C486.209 324.493 486.172 323.902 486.24 323.321C486.307 322.74 486.477 322.183 486.738 321.687C487 321.19 487.347 320.765 487.756 320.44L505.368 306.458L489.413 283.616C488.485 281.773 488.144 279.595 488.454 277.478C488.763 275.361 489.702 273.447 491.098 272.087C492.495 270.726 494.255 270.009 496.059 270.066C497.863 270.124 499.589 270.953 500.922 272.401L520.314 294.967C521.84 296.627 523.005 298.704 523.709 301.018C524.413 303.333 524.634 305.816 524.355 308.255C524.076 310.694 523.303 313.016 522.105 315.021C520.906 317.027 519.316 318.656 517.472 319.768L501.623 339.795C501.298 340.206 500.905 340.533 500.47 340.757C500.035 340.98 499.566 341.096 499.091 341.096Z" fill="#2F2E41"/>
<path d="M477.488 292.949C477.337 292.949 477.186 292.938 477.036 292.915C476.381 292.82 475.763 292.504 475.254 292.003C474.746 291.502 474.369 290.838 474.168 290.09L467.1 264.286C466.923 263.634 466.95 262.927 467.177 262.297C467.403 261.666 467.814 261.155 468.332 260.857L468.561 260.728C468.769 260.61 468.975 260.494 469.186 260.382C472.481 258.562 476.069 257.613 479.702 257.599C484.418 257.61 489.029 259.26 492.969 262.347C493.497 262.765 493.866 263.414 493.996 264.154C494.127 264.893 494.008 265.664 493.666 266.3L480.407 291.035C480.097 291.622 479.666 292.106 479.155 292.441C478.644 292.775 478.071 292.951 477.488 292.949Z" fill="#E6E6E6"/>
<path d="M504.125 211.373C508.316 211.373 511.714 207.327 511.714 202.336C511.714 197.345 508.316 193.299 504.125 193.299C499.934 193.299 496.536 197.345 496.536 202.336C496.536 207.327 499.934 211.373 504.125 211.373Z" fill="#2F2E41"/>
<path d="M478.109 192.402C472.778 192.402 467.666 194.924 463.896 199.413C460.127 203.902 458.009 209.99 458.009 216.338V226.465H468.468L473.471 216.338L474.972 226.465H506.713L498.209 216.338C498.209 209.99 496.092 203.902 492.322 199.413C488.553 194.924 483.44 192.402 478.109 192.402Z" fill="#2F2E41"/>
<path d="M508.026 196.146C508.865 193.021 510.602 190.348 512.933 188.598C515.263 186.847 518.037 186.131 520.767 186.575C525.603 187.538 529.427 192.168 531.705 197.338C533.984 202.509 535.036 208.296 536.567 213.843C538.099 219.39 540.271 224.967 544.138 228.558C548.005 232.148 553.939 233.122 557.736 229.429C557.302 233.278 555.863 236.868 553.622 239.69C551.381 242.512 548.452 244.424 545.249 245.155C542.045 245.886 538.73 245.399 535.772 243.763C532.813 242.128 530.362 239.426 528.764 236.04C526.76 231.794 526.242 226.818 525.648 222C525.054 217.181 524.282 212.195 521.889 208.245C519.497 204.295 515.019 201.716 511.218 203.515L508.026 196.146Z" fill="#2F2E41"/>
<path d="M261.259 209.933C254.34 209.932 247.705 206.659 242.813 200.833C237.921 195.007 235.173 187.105 235.172 178.866C235.172 173.247 235.175 168.951 235.182 168.34C235.402 149.093 239.473 130.186 247.056 113.188C234.597 133.499 227.746 157.919 227.452 183.07C227.444 183.681 227.441 187.977 227.441 193.596C227.442 201.835 230.19 209.736 235.082 215.562C239.975 221.388 246.61 224.662 253.528 224.663C259.214 224.66 264.743 222.448 269.276 218.362C273.809 214.276 277.098 208.54 278.644 202.024C273.867 207.125 267.675 209.942 261.259 209.933Z" fill="#3F3D56"/>
<path d="M331.459 128.064C339.458 128.519 347.244 131.279 354.149 136.107C361.055 140.934 366.873 147.686 371.105 155.781C375.337 163.876 377.855 173.074 378.445 182.583C379.034 192.093 377.676 201.631 374.488 210.378C379.1 203.929 382.489 196.372 384.425 188.221C386.362 180.071 386.799 171.519 385.709 163.149C384.618 154.779 382.024 146.787 378.105 139.719C374.186 132.65 369.032 126.672 362.997 122.19C356.961 117.708 350.185 114.829 343.13 113.748C336.075 112.668 328.907 113.412 322.116 115.929C315.324 118.446 309.068 122.678 303.774 128.335C298.481 133.992 294.273 140.942 291.44 148.712C296.337 141.851 302.493 136.421 309.431 132.841C316.37 129.261 323.906 127.627 331.459 128.064Z" fill="#3F3D56"/>
<path d="M339.485 403.26C332.427 403.262 325.652 399.959 320.62 394.065C315.589 388.171 312.704 380.158 312.59 371.755C312.263 347.399 312.093 317.391 312.093 313.961C312.089 305.618 313.097 297.318 315.088 289.319L315.078 289.316C316.254 285.301 317.673 281.393 319.326 277.623C314.253 285.673 310.216 294.578 307.347 304.045L307.357 304.048C305.366 312.048 304.358 320.348 304.362 328.691C304.362 332.12 304.532 362.128 304.859 386.484C304.974 394.888 307.858 402.901 312.889 408.795C317.921 414.689 324.697 417.991 331.754 417.989C337.574 417.988 343.236 415.74 347.892 411.583C352.547 407.425 355.946 401.582 357.577 394.93C352.631 400.299 346.178 403.271 339.485 403.26Z" fill="#3F3D56"/>
<path d="M97.826 536.33L107.303 536.329L111.813 492.796L97.8237 492.796L97.826 536.33Z" fill="#FFB8B8"/>
<path d="M125.583 546.809L95.7953 546.81L95.7948 533.105L114.073 533.104C117.126 533.104 120.053 534.548 122.211 537.118C124.37 539.688 125.582 543.174 125.583 546.809L125.583 546.809Z" fill="#2F2E41"/>
<path d="M63.8107 536.33L73.2878 536.329L77.7972 492.796L63.8083 492.796L63.8107 536.33Z" fill="#FFB8B8"/>
<path d="M91.5669 546.809L61.7797 546.81L61.7791 533.105L80.0577 533.104C83.11 533.104 86.0373 534.548 88.1957 537.118C90.3541 539.688 91.5668 543.174 91.5669 546.809L91.5669 546.809Z" fill="#2F2E41"/>
<path d="M72.0928 522.941L62.8352 522.361C62.3578 522.331 61.8902 522.189 61.4593 521.942C61.0285 521.696 60.6431 521.35 60.3254 520.924C60.0077 520.499 59.764 520.003 59.6085 519.465C59.4529 518.926 59.3886 518.357 59.4193 517.789L70.4841 371.904L121.438 388.278L126.348 386.683L110.996 515.83C110.865 516.801 110.46 517.69 109.847 518.351C109.235 519.011 108.451 519.403 107.626 519.461L97.6469 520.015C97.1479 520.048 96.6486 519.957 96.1805 519.749C95.7124 519.54 95.2857 519.218 94.9274 518.803C94.5691 518.388 94.287 517.889 94.0989 517.338C93.9107 516.787 93.8207 516.195 93.8345 515.6L95.6427 438.088C95.6511 437.73 95.5466 437.381 95.3496 437.11C95.1526 436.838 94.8774 436.665 94.5783 436.623C94.2793 436.582 93.9779 436.675 93.7338 436.885C93.4896 437.095 93.3203 437.406 93.2591 437.757L75.8209 519.518C75.6563 520.488 75.2142 521.36 74.5701 521.986C73.926 522.611 73.1197 522.951 72.2886 522.948C72.2237 522.948 72.1584 522.946 72.0928 522.941Z" fill="#2F2E41"/>
<path d="M99.5276 252.54C110.014 252.54 118.515 242.417 118.515 229.929C118.515 217.441 110.014 207.318 99.5276 207.318C89.0411 207.318 80.54 217.441 80.54 229.929C80.54 242.417 89.0411 252.54 99.5276 252.54Z" fill="#FFB8B8"/>
<path d="M67.9146 296.359L70.0024 350L70.7571 369.515C70.7872 370.365 71.0294 371.185 71.4528 371.869C71.8762 372.554 72.4614 373.073 73.1338 373.359L122.097 394.481C122.493 394.656 122.912 394.744 123.334 394.739C123.816 394.742 124.294 394.629 124.739 394.407C125.184 394.185 125.586 393.859 125.923 393.447C126.259 393.036 126.523 392.548 126.698 392.012C126.872 391.477 126.954 390.905 126.939 390.331L124.932 293.882C124.8 285.969 122.354 278.359 118.015 272.363C113.677 266.367 107.717 262.362 101.165 261.038C100.691 260.952 100.209 260.866 99.7275 260.789C95.6643 260.188 91.5399 260.655 87.6445 262.157C83.7492 263.659 80.1775 266.159 77.1806 269.481C74.0775 272.879 71.6392 277.048 70.038 281.693C68.4369 286.337 67.712 291.344 67.9146 296.359L67.9146 296.359Z" fill="#CCCCCC"/>
<path d="M145.487 383.777C144.329 383.35 143.271 382.605 142.398 381.604C141.524 380.602 140.859 379.372 140.456 378.01C140.053 376.648 139.922 375.193 140.075 373.761C140.228 372.328 140.66 370.958 141.337 369.76L124.733 343.467L139.061 342.411L152.632 367.541C154.085 368.879 155.096 370.783 155.488 372.919C155.879 375.056 155.627 377.288 154.775 379.225C153.922 381.162 152.524 382.68 150.826 383.513C149.128 384.345 147.238 384.439 145.487 383.777H145.487Z" fill="#FFB8B8"/>
<path d="M133.813 365.002C133.373 364.789 132.973 364.475 132.636 364.077C132.298 363.679 132.031 363.205 131.848 362.683L106.833 291.71C106.342 290.32 106.086 288.829 106.079 287.322C106.073 285.814 106.315 284.32 106.794 282.924C107.272 281.529 107.977 280.259 108.868 279.188C109.759 278.117 110.818 277.265 111.985 276.682C113.153 276.098 114.405 275.794 115.671 275.788C116.937 275.781 118.192 276.071 119.363 276.642C120.535 277.213 121.601 278.053 122.499 279.115C123.398 280.176 124.113 281.439 124.602 282.829L149.617 353.803C149.987 354.856 149.991 356.04 149.628 357.096C149.266 358.151 148.567 358.993 147.684 359.436L136.578 364.986C136.141 365.206 135.672 365.321 135.197 365.324C134.722 365.327 134.252 365.217 133.813 365.002L133.813 365.002Z" fill="#CCCCCC"/>
<path d="M93.4231 362.498L117.45 307.714C117.913 306.661 118.708 305.869 119.661 305.513C120.614 305.157 121.647 305.265 122.533 305.815L157.407 327.504C158.292 328.056 158.957 329.003 159.256 330.138C159.555 331.273 159.464 332.502 159.003 333.557L134.976 388.341C134.513 389.395 133.717 390.187 132.764 390.543C131.811 390.899 130.779 390.79 129.893 390.241L95.0183 368.551C94.1335 368 93.4687 367.052 93.1696 365.918C92.8706 364.783 92.9617 363.553 93.4231 362.498Z" fill="#3F3D56"/>
<path d="M109.536 337.469C109.109 336.118 108.422 334.904 107.531 333.924C106.64 332.945 105.569 332.227 104.404 331.829C103.239 331.43 102.011 331.361 100.819 331.627C99.6277 331.893 98.5047 332.488 97.5402 333.363L74.5191 315.177L74.48 332.272L96.3472 346.921C97.5542 348.569 99.2101 349.658 101.024 349.998C102.838 350.338 104.695 349.906 106.268 348.778C107.842 347.65 109.032 345.899 109.629 343.831C110.227 341.763 110.194 339.511 109.536 337.469Z" fill="#FFB8B8"/>
<path d="M80.4298 341.313L61.6156 323.566C59.5802 322.752 57.7411 321.363 56.2561 319.516C54.7712 317.67 53.6847 315.421 53.0899 312.965C52.4951 310.508 52.4098 307.916 52.8413 305.412C53.2729 302.907 54.2083 300.565 55.5674 298.586L72.6502 271.925C73.8374 270.198 75.5069 269.037 77.3536 268.654C79.2004 268.272 81.101 268.694 82.7081 269.843C84.3151 270.992 85.5213 272.791 86.106 274.912C86.6908 277.033 86.6151 279.333 85.8928 281.393L72.3764 307.722L92.2399 318.942C92.7018 319.203 93.1119 319.577 93.4432 320.041C93.7745 320.504 94.0195 321.046 94.1618 321.631C94.3042 322.216 94.3407 322.83 94.269 323.433C94.1973 324.035 94.019 324.613 93.7459 325.128L85.7278 340.239C85.4567 340.749 85.0987 341.185 84.677 341.52C84.2553 341.855 83.7792 342.08 83.2796 342.182C83.2598 342.186 83.2398 342.19 83.2199 342.193C82.729 342.282 82.2281 342.249 81.7482 342.098C81.2683 341.946 80.8196 341.68 80.4298 341.313Z" fill="#CCCCCC"/>
<path d="M85.18 245.07C85.0986 244.786 85.0727 244.484 85.1045 244.186C85.1363 243.888 85.2248 243.604 85.3633 243.353C85.5019 243.103 85.6867 242.893 85.9037 242.741C86.1207 242.589 86.364 242.497 86.6151 242.474C87.1294 242.508 87.6327 242.665 88.0946 242.936C88.5564 243.207 88.9673 243.587 89.3025 244.053C89.9896 244.997 90.7896 245.815 91.6767 246.481C92.5952 247.032 93.841 246.954 94.3646 245.903C94.8563 244.915 94.5194 243.594 94.2217 242.447C93.4642 239.53 93.0404 236.505 92.9616 233.453C92.8759 230.046 93.2795 226.491 94.8632 223.834C96.9071 220.405 100.562 219.103 104.021 219.198C107.479 219.292 110.882 220.564 114.308 221.367C115.491 221.645 116.881 221.787 117.672 220.695C118.513 219.534 118.204 217.656 117.847 216.089C116.918 212.022 115.933 207.817 113.776 204.533C111.444 201.12 108.112 198.887 104.452 198.282C100.938 197.764 97.3715 198.246 94.0448 199.689C88.6246 201.723 83.8552 205.68 80.3745 211.03C76.7864 216.719 75.236 223.868 76.0622 230.915C76.8694 237.052 79.6004 242.597 83.7047 246.431L85.18 245.07Z" fill="#2F2E41"/>
<path d="M325.666 536.509C320.614 533.889 316.143 529.907 312.605 524.877C309.067 519.846 306.559 513.906 305.279 507.524C303.999 501.141 303.983 494.492 305.23 488.101C306.478 481.71 308.956 475.752 312.469 470.697C308.396 474.238 305.003 478.77 302.513 483.992C300.024 489.214 298.496 495.007 298.03 500.987C297.564 506.966 298.172 512.995 299.813 518.673C301.453 524.351 304.09 529.549 307.546 533.921C311.003 538.294 315.2 541.741 319.861 544.033C324.522 546.326 329.539 547.412 334.579 547.219C339.619 547.027 344.567 545.56 349.095 542.916C353.622 540.272 357.626 536.511 360.839 531.884C355.827 536.246 349.942 538.969 343.77 539.781C337.599 540.592 331.357 539.465 325.666 536.509Z" fill="#3F3D56"/>
</g>
<defs>
<clipPath id="clip0">
<rect width="653" height="548" fill="white"/>
</clipPath>
</defs>
</svg>
