<svg width="562" height="539" viewBox="0 0 562 539" fill="none" xmlns="http://www.w3.org/2000/svg">
<g clip-path="url(#clip0)">
<path opacity="0.1" d="M36.7828 211.26H85.6276V297.669H40.3542C40.2387 298.562 40.1232 299.449 39.9932 300.343H85.6276V370.017C85.5506 370.017 85.4736 369.942 85.4014 369.905C84.1179 369.243 82.8343 368.541 81.5508 367.8C81.2765 367.637 81.0069 367.469 80.7277 367.312C79.4442 366.525 78.1607 365.692 76.8771 364.814C76.4295 364.508 75.9819 364.189 75.5439 363.864C68.4182 358.704 61.9418 352.161 56.339 344.462C56.1705 344.256 56.0165 344.031 55.8577 343.838C55.0779 342.738 54.3126 341.626 53.5714 340.489C53.2922 340.071 53.0227 339.646 52.7483 339.24C51.8723 337.853 51.0252 336.417 50.2069 334.974C50.0818 334.755 49.9663 334.543 49.8459 334.349C46.494 328.329 43.7143 321.807 41.5671 314.922C41.4997 314.716 41.4372 314.491 41.3746 314.297C40.7104 312.111 40.1087 309.894 39.5889 307.632C39.3675 306.689 39.1509 305.758 38.968 304.778C38.9006 304.497 38.8476 304.209 38.7899 303.928C36.0848 290.092 35.772 275.712 35.772 261.401C35.772 259.736 35.772 258.07 35.772 256.404C35.8105 250.561 35.8634 244.725 35.9308 238.895C35.9565 237.396 35.9805 235.89 36.003 234.379C36.0704 230.551 36.1667 226.716 36.2918 222.872C36.3207 221.81 36.3592 220.742 36.4025 219.687C36.4218 219.074 36.4458 218.462 36.4747 217.85C36.5613 215.639 36.664 213.442 36.7828 211.26Z" fill="#F29544"/>
<path opacity="0.1" d="M85.6276 115.05H58.8323C63.19 106.208 67.9491 97.7098 73.0843 89.6011C77.0697 83.2546 81.2668 77.0705 85.6276 71.1112V115.05Z" fill="#F29544"/>
<path opacity="0.1" d="M85.6279 117.711V208.586H36.937C36.937 208.324 36.9659 208.055 36.9851 207.793C37.0285 207.075 37.0718 206.363 37.1199 205.644C37.168 204.807 37.2306 203.97 37.2932 203.146C37.3558 202.321 37.4183 201.322 37.4953 200.416C37.5724 199.51 37.6349 198.592 37.7119 197.686C37.789 196.78 37.866 195.875 37.9526 194.975C38.0392 194.076 38.1163 193.164 38.2125 192.264C38.2847 191.521 38.3569 190.771 38.4387 190.022C38.5494 188.966 38.665 187.91 38.7853 186.861C38.7853 186.698 38.8238 186.542 38.8431 186.386C39.7227 178.704 40.9181 171.089 42.4241 163.573C44.0056 155.69 46.0244 147.966 48.4647 140.461C51.0578 132.597 54.0952 124.993 57.5522 117.711H85.6279Z" fill="#F29544"/>
<path opacity="0.1" d="M97.2952 211.26V297.669H201.627V211.26H97.2952ZM97.2952 300.343V374.552C97.892 374.708 98.4792 374.864 99.0713 374.996C99.8654 375.196 100.664 375.377 101.478 375.533L101.959 375.62C102.277 375.689 102.599 375.745 102.922 375.795C103.726 375.945 104.529 376.058 105.328 376.157C105.704 376.207 106.094 376.245 106.474 376.289L107.403 376.376C107.908 376.426 108.409 376.464 108.91 376.489C109.218 376.489 109.526 376.52 109.838 376.532C110.151 376.545 110.32 376.532 110.57 376.532H111.48C111.894 376.532 112.308 376.532 112.717 376.532H113.246C113.66 376.532 114.074 376.532 114.483 376.482H114.507C114.796 376.482 115.08 376.482 115.369 376.439C115.451 376.445 115.533 376.445 115.614 376.439C115.855 376.439 116.096 376.439 116.327 376.401C116.381 376.395 116.436 376.395 116.49 376.401C117.025 376.357 117.564 376.301 118.108 376.239C118.652 376.176 119.167 376.101 119.71 376.026L120.803 375.851C125.268 375.04 129.683 373.821 134.015 372.203C143.753 368.68 153.268 363.752 163.001 360.147C175.573 355.494 189.474 353.201 201.622 358.867V300.343H97.2952ZM201.627 115.05V0.0124828C190.206 -0.150598 178.815 1.58124 167.732 5.16592C141.312 13.78 117.588 32.4636 97.2952 56.3256V115.044H102.546V117.711H97.2952V208.586H201.627V117.711H124.028V115.037L201.627 115.05ZM335.667 76.1897C329.13 75.8899 322.632 73.2101 316.751 69.0561C305.516 61.1292 296.535 48.8734 286.504 38.5415C265.663 17.0095 239.816 4.0103 213.299 0.787061V115.05H362.226L362.597 114.544L335.667 76.1897ZM349.235 73.0664L363.622 93.5615V67.6756C358.78 68.4689 354.563 70.3117 349.235 73.0414V73.0664ZM363.622 392.98V300.343H332.942C332.865 299.949 332.779 299.549 332.682 299.149C332.774 299.549 332.856 299.949 332.937 300.343H213.299V367.331C214.435 368.424 215.557 369.58 216.669 370.742C217.869 372.016 219.061 373.305 220.245 374.608L221.439 375.889C222.011 376.514 222.594 377.138 223.171 377.732C224.33 378.943 225.496 380.143 226.671 381.33C227.258 381.929 227.848 382.519 228.442 383.097C237.843 392.422 247.759 400.838 258.111 408.277C260.431 409.958 262.775 411.576 265.133 413.156C266.702 414.205 268.283 415.234 269.874 416.242C272.262 417.754 274.668 419.211 277.094 420.615C299.459 433.644 323.109 442.582 347.368 447.175C352.752 448.204 358.161 449.016 363.593 449.611V392.967H364.074L363.622 392.98ZM213.299 117.711V208.586H363.622V117.711H213.299ZM213.299 211.247V297.669H363.622V211.26L213.299 211.247ZM375.289 67.5507V96.4724L393.647 70.3179C387.563 69.0145 381.444 68.092 375.289 67.5507ZM375.289 211.26V297.669H521.492V211.26H375.289ZM520.977 399.832L521.492 300.343H375.289V450.617C384.707 451.125 394.138 450.977 403.543 450.173H403.707C408.199 449.799 412.671 449.266 417.121 448.574H417.222C440.974 444.986 464.197 436.936 486.163 424.675L520.977 399.832ZM549.697 225.452C549.142 223.786 548.573 222.121 547.989 220.455C546.901 217.332 545.755 214.296 544.571 211.266H533.164V297.669H562C561.976 273.195 557.201 248.208 549.697 225.452ZM533.164 300.343V385.921C541.284 375.82 548.152 364.258 553.091 351.04C559.035 335.117 561.755 317.889 561.981 300.336L533.164 300.343ZM533.164 186.08V208.568H543.503C540.369 200.837 536.917 193.331 533.164 186.08ZM434.011 84.5102C433.25 84.1292 432.485 83.7481 431.72 83.3858C423.651 79.5155 415.404 76.2986 407.028 73.7536L378.928 113.769L378.379 114.538L378.74 115.044H478.75C464.821 102.604 449.802 92.3546 434.011 84.5102ZM481.686 117.711H377.34L375.289 120.141V208.586H393.267H521.492V165.735C509.897 147.538 496.515 131.392 481.686 117.711Z" fill="#F29544"/>
<path opacity="0.1" d="M85.6279 163.555V208.586H36.937C36.937 208.324 36.9659 208.055 36.9851 207.793C37.0285 207.075 37.0718 206.362 37.1199 205.644C37.168 204.807 37.2306 203.97 37.2932 203.145C37.3558 202.321 37.4183 201.321 37.4953 200.416C37.5724 199.51 37.6349 198.592 37.7119 197.686C37.789 196.78 37.866 195.874 37.9526 194.975C38.0392 194.075 38.1163 193.163 38.2125 192.264C38.2847 191.521 38.3569 190.771 38.4387 190.021C38.5494 188.966 38.665 187.91 38.7853 186.861C38.7853 186.698 38.8238 186.542 38.8431 186.386C39.7227 178.704 40.9181 171.089 42.4241 163.573L85.6279 163.555Z" fill="#F29544"/>
<path opacity="0.1" d="M36.7828 211.26H85.6276V297.669H40.3542C40.2387 298.562 40.1232 299.449 39.9932 300.343H85.6276V370.017C85.5506 370.017 85.4736 369.942 85.4014 369.905C84.1179 369.243 82.8343 368.541 81.5508 367.8C81.2765 367.637 81.0069 367.469 80.7277 367.312C79.4442 366.525 78.1607 365.692 76.8771 364.814C76.4295 364.508 75.9819 364.189 75.5439 363.864C68.4182 358.704 61.9418 352.161 56.339 344.462C56.1705 344.256 56.0165 344.031 55.8577 343.838C55.0779 342.738 54.3126 341.626 53.5714 340.489C53.2922 340.071 53.0227 339.646 52.7483 339.24C51.8723 337.853 51.0252 336.417 50.2069 334.974C50.0818 334.755 49.9663 334.543 49.8459 334.349C46.494 328.329 43.7143 321.807 41.5671 314.922C41.4997 314.716 41.4372 314.491 41.3746 314.297C40.7104 312.111 40.1087 309.894 39.5889 307.632C39.3675 306.689 39.1509 305.758 38.968 304.778C38.9006 304.497 38.8476 304.209 38.7899 303.928C36.0848 290.092 35.772 275.712 35.772 261.401C35.772 259.736 35.772 258.07 35.772 256.404C35.8105 250.561 35.8634 244.725 35.9308 238.895C35.9565 237.396 35.9805 235.89 36.003 234.379C36.0704 230.551 36.1667 226.716 36.2918 222.872C36.3207 221.81 36.3592 220.742 36.4025 219.687C36.4218 219.074 36.4458 218.462 36.4747 217.85C36.5613 215.639 36.664 213.442 36.7828 211.26Z" fill="#F29544"/>
<path opacity="0.1" d="M134.02 130.729V208.586H97.2903V130.729H102.527V104.368H124.023V130.729H134.02Z" fill="#F29544"/>
<path opacity="0.1" d="M134.015 211.254H97.2903V297.663H134.015V211.254Z" fill="#F29544"/>
<path opacity="0.1" d="M97.2952 300.343H134.02V372.178C129.688 373.797 125.273 375.014 120.808 375.82C120.442 375.889 120.081 375.945 119.715 375.995C119.176 376.076 118.642 376.151 118.108 376.214L116.495 376.382H116.332L115.619 376.432H115.374C115.085 376.432 114.801 376.476 114.512 376.482H114.488C114.074 376.482 113.665 376.52 113.251 376.532H112.722C112.313 376.532 111.903 376.532 111.485 376.532H110.58H109.843C109.53 376.532 109.222 376.532 108.91 376.482C108.415 376.457 107.915 376.42 107.408 376.37L106.479 376.282C106.094 376.245 105.709 376.195 105.328 376.145C104.52 376.053 103.718 375.935 102.922 375.789L101.959 375.614L101.478 375.527C100.674 375.37 99.8751 375.196 99.0713 374.996C98.4744 374.858 97.8872 374.702 97.2952 374.54V300.343Z" fill="#F29544"/>
<path opacity="0.1" d="M363.617 121.534H333.332V208.58H363.617V121.534Z" fill="#F29544"/>
<path opacity="0.1" d="M363.622 211.254V297.669H213.299V260.396H293.368V282.384H333.332V211.254H363.622Z" fill="#F29544"/>
<path opacity="0.1" d="M364.098 392.998C363.94 392.998 363.781 392.998 363.617 392.961V449.649C358.191 449.07 352.784 448.26 347.396 447.219C323.13 442.628 299.47 433.693 277.094 420.671C270.635 416.89 264.307 412.769 258.111 408.309C247.763 400.866 237.848 392.45 228.447 383.129C226.078 380.78 223.746 378.379 221.448 375.926C219.855 374.215 218.276 372.466 216.669 370.773C215.562 369.605 214.44 368.449 213.299 367.35V300.343H332.937C332.851 299.943 332.774 299.549 332.687 299.15C332.779 299.549 332.865 299.943 332.942 300.343H363.622V392.955C363.781 392.961 363.94 392.98 364.098 392.998Z" fill="#F29544"/>
<path opacity="0.1" d="M442.607 115.05H422.873V107.092H431.715V83.3859C432.482 83.7523 433.246 84.1271 434.006 84.5103V107.092H442.603L442.607 115.05Z" fill="#F29544"/>
<path opacity="0.1" d="M490.158 208.586H393.267C393.276 208.589 393.286 208.589 393.296 208.586H393.252H375.289V121.54H380.382V185.88H403.649V147.776H422.878V117.711H442.612V147.795H461.832V185.899H490.162L490.158 208.586Z" fill="#F29544"/>
<path opacity="0.1" d="M375.289 211.26V297.669H490.162V211.26H375.289ZM521.328 399.376L521.492 330.976H490.162V300.368H375.289V450.617C384.707 451.125 394.138 450.977 403.543 450.173H403.707C408.199 449.799 412.671 449.266 417.121 448.574H417.222C440.974 444.986 464.196 436.936 486.163 424.675" fill="#F29544"/>
<path opacity="0.1" d="M535.185 300.343H561.981C561.75 317.889 559.035 335.124 553.091 351.04C548.152 364.264 541.284 375.826 533.164 385.927V330.957H535.185V300.343Z" fill="#F29544"/>
<path opacity="0.1" d="M562 297.669H535.185V225.452H549.697C557.201 248.209 561.976 273.195 562 297.669Z" fill="#F29544"/>
<path opacity="0.1" d="M363.622 145.733H347.396V173.024H363.622V145.733Z" fill="#F29544"/>
<path opacity="0.1" d="M363.622 202.302H347.396V208.586H363.622V202.302Z" fill="#F29544"/>
<path opacity="0.1" d="M363.622 211.254H347.396V229.587H363.622V211.254Z" fill="#F29544"/>
<path opacity="0.1" d="M363.622 258.871H347.396V286.163H363.622V258.871Z" fill="#F29544"/>
<path opacity="0.1" d="M363.622 315.441H347.396V342.732H363.622V315.441Z" fill="#F29544"/>
<path opacity="0.1" d="M363.622 392.955C363.781 392.955 363.939 392.955 364.103 392.998C363.944 392.998 363.785 392.998 363.622 392.961V399.301H347.396V372.01H363.622V392.955Z" fill="#F29544"/>
<path opacity="0.1" d="M363.622 428.573V449.649C358.192 449.07 352.784 448.26 347.396 447.219V428.573H363.622Z" fill="#F29544"/>
<path opacity="0.1" d="M282.836 295.664H213.299V297.669H282.836V295.664Z" fill="#F29544"/>
<path opacity="0.1" d="M282.836 300.336H213.299V308.02H282.836V300.336Z" fill="#F29544"/>
<path opacity="0.1" d="M282.836 333.206H213.299V345.562H282.836V333.206Z" fill="#F29544"/>
<path opacity="0.1" d="M282.836 370.748V383.104H228.446C226.078 380.763 223.746 378.36 221.448 375.895C219.85 374.19 218.271 372.441 216.668 370.748H282.836Z" fill="#F29544"/>
<path opacity="0.1" d="M282.836 408.284V420.671H277.094C270.635 416.889 264.307 412.769 258.111 408.309L282.836 408.284Z" fill="#F29544"/>
<path opacity="0.1" d="M417.232 219.63H403.543V237.396H417.232V219.63Z" fill="#F29544"/>
<path opacity="0.1" d="M120.841 136.857H107.153V154.622H120.841V136.857Z" fill="#F29544"/>
<path opacity="0.1" d="M120.841 178.122H107.153V195.887H120.841V178.122Z" fill="#F29544"/>
<path opacity="0.1" d="M120.841 219.387H107.153V237.152H120.841V219.387Z" fill="#F29544"/>
<path opacity="0.1" d="M120.841 260.646H107.153V278.411H120.841V260.646Z" fill="#F29544"/>
<path opacity="0.1" d="M120.841 301.91H107.153V319.676H120.841V301.91Z" fill="#F29544"/>
<path opacity="0.1" d="M120.841 343.176H107.153V360.941H120.841V343.176Z" fill="#F29544"/>
<path opacity="0.1" d="M469.489 219.63H455.8V237.396H469.489V219.63Z" fill="#F29544"/>
<path opacity="0.1" d="M417.232 263.45H403.543V281.216H417.232V263.45Z" fill="#F29544"/>
<path opacity="0.1" d="M469.489 263.45H455.8V281.216H469.489V263.45Z" fill="#F29544"/>
<path opacity="0.1" d="M417.232 307.264H403.543V325.029H417.232V307.264Z" fill="#F29544"/>
<path opacity="0.1" d="M469.489 307.264H455.8V325.029H469.489V307.264Z" fill="#F29544"/>
<path opacity="0.1" d="M417.232 351.084H403.543V368.849H417.232V351.084Z" fill="#F29544"/>
<path opacity="0.1" d="M469.489 351.084H455.8V368.849H469.489V351.084Z" fill="#F29544"/>
<path opacity="0.1" d="M417.232 394.904H403.543V412.669H417.232V394.904Z" fill="#F29544"/>
<path opacity="0.1" d="M469.489 394.904H455.8V412.669H469.489V394.904Z" fill="#F29544"/>
<path opacity="0.1" d="M403.543 450.173V438.717H417.227V448.543L403.543 450.173Z" fill="#F29544"/>
<path opacity="0.1" d="M38.7852 186.367V196.53H85.6277V186.367H38.7852ZM43.4492 195.893H39.5986V187.011H43.4492V195.893ZM48.1132 195.893H44.2626V187.011H48.1132V195.893ZM52.7676 195.893H48.917V187.011H52.7676V195.893ZM57.4317 195.893H53.5811V187.011H57.4317V195.893ZM62.0909 195.893H58.2403V187.011H62.0909V195.893ZM66.755 195.893H62.9044V187.011H66.755V195.893ZM71.419 195.893H67.5684V187.011H71.419V195.893ZM76.0782 195.893H72.2276V187.011H76.0782V195.893ZM80.7374 195.893H76.8868V187.011H80.7374V195.893ZM85.4015 195.893H81.5509V187.011H85.4015V195.893Z" fill="#F29544"/>
<path opacity="0.1" d="M38.7852 215.951V226.114H85.6277V215.951H38.7852ZM43.4492 225.477H39.5986V216.594H43.4492V225.477ZM48.1132 225.477H44.2626V216.594H48.1132V225.477ZM52.7676 225.477H48.917V216.594H52.7676V225.477ZM57.4317 225.477H53.5811V216.594H57.4317V225.477ZM62.0909 225.477H58.2403V216.594H62.0909V225.477ZM66.755 225.477H62.9044V216.594H66.755V225.477ZM71.419 225.477H67.5684V216.594H71.419V225.477ZM76.0782 225.477H72.2276V216.594H76.0782V225.477ZM80.7374 225.477H76.8868V216.594H80.7374V225.477ZM85.4015 225.477H81.5509V216.594H85.4015V225.477Z" fill="#F29544"/>
<path opacity="0.1" d="M38.7852 245.541V255.698H85.6277V245.541H38.7852ZM43.4492 255.055H39.5986V246.172H43.4492V255.055ZM48.1132 255.055H44.2626V246.172H48.1132V255.055ZM52.7676 255.055H48.917V246.172H52.7676V255.055ZM57.4317 255.055H53.5811V246.172H57.4317V255.055ZM62.0909 255.055H58.2403V246.172H62.0909V255.055ZM66.755 255.055H62.9044V246.172H66.755V255.055ZM71.419 255.055H67.5684V246.172H71.419V255.055ZM76.0782 255.055H72.2276V246.172H76.0782V255.055ZM80.7374 255.055H76.8868V246.172H80.7374V255.055ZM85.4015 255.055H81.5509V246.172H85.4015V255.055Z" fill="#F29544"/>
<path opacity="0.1" d="M38.7852 275.125V285.282H85.6277V275.125H38.7852ZM43.4492 284.645H39.5986V275.75H43.4492V284.645ZM48.1132 284.645H44.2626V275.75H48.1132V284.645ZM52.7676 284.645H48.917V275.75H52.7676V284.645ZM57.4317 284.645H53.5811V275.75H57.4317V284.645ZM62.0909 284.645H58.2403V275.75H62.0909V284.645ZM66.755 284.645H62.9044V275.75H66.755V284.645ZM71.419 284.645H67.5684V275.75H71.419V284.645ZM76.0782 284.645H72.2276V275.75H76.0782V284.645ZM80.7374 284.645H76.8868V275.75H80.7374V284.645ZM85.4015 284.645H81.5509V275.75H85.4015V284.645Z" fill="#F29544"/>
<path opacity="0.1" d="M39.0115 304.696C39.1944 305.658 39.411 306.608 39.6324 307.551V305.34H43.483V314.216H41.4181C41.4759 314.429 41.5384 314.647 41.6058 314.841H85.6471V304.696H39.0115ZM48.1567 314.216H44.3061V305.34H48.1567V314.216ZM52.8111 314.216H48.9605V305.34H52.8111V314.216ZM57.4751 314.216H53.6245V305.34H57.4751V314.216ZM62.1343 314.216H58.2837V305.34H62.1343V314.216ZM66.7984 314.216H62.9478V305.34H66.7984V314.216ZM71.4624 314.216H67.6118V305.34H71.4624V314.216ZM76.1216 314.216H72.271V305.34H76.1216V314.216ZM80.7809 314.216H76.9303V305.34H80.7809V314.216ZM85.4449 314.216H81.5943V305.34H85.4449V314.216Z" fill="#F29544"/>
<path opacity="0.1" d="M49.8604 334.28C49.9855 334.48 50.101 334.705 50.2213 334.905H52.7676V339.171L53.5906 340.421V334.88H57.4412V343.838H55.8577C56.0117 344.044 56.1609 344.262 56.339 344.462H85.618V334.28H49.8604ZM62.1149 343.838H58.2643V334.917H62.1149V343.838ZM66.7789 343.838H62.9283V334.917H66.7789V343.838ZM71.443 343.838H67.5924V334.917H71.443V343.838ZM76.1022 343.838H72.2516V334.917H76.1022V343.838ZM80.7614 343.838H76.9108V334.917H80.7614V343.838ZM85.4255 343.838H81.5749V334.917H85.4255V343.838Z" fill="#F29544"/>
<path opacity="0.1" d="M75.5583 363.864C76.0012 364.189 76.4488 364.489 76.8964 364.807V364.495H80.747V367.312C81.0262 367.469 81.2909 367.637 81.5653 367.8V364.495H85.4159V369.905C85.4891 369.948 85.5647 369.983 85.6421 370.011V363.864H75.5583Z" fill="#F29544"/>
<path opacity="0.1" d="M363.617 392.954H364.098H363.617ZM332.682 299.149C332.774 299.549 332.856 299.949 332.937 300.342C332.865 299.949 332.779 299.549 332.682 299.149ZM102.546 115.05V117.711H124.047V115.037L102.546 115.05ZM363.622 392.954H364.103H363.622ZM332.682 299.149C332.774 299.549 332.856 299.949 332.937 300.342C332.865 299.949 332.779 299.549 332.682 299.149ZM363.617 392.954H364.098H363.617ZM332.682 299.149C332.774 299.549 332.856 299.949 332.937 300.342C332.865 299.949 332.779 299.549 332.682 299.149Z" fill="#F29544"/>
<path opacity="0.1" d="M423.292 539C449.194 539 470.192 534.623 470.192 529.224C470.192 523.825 449.194 519.448 423.292 519.448C397.389 519.448 376.391 523.825 376.391 529.224C376.391 534.623 397.389 539 423.292 539Z" fill="#F29544"/>
<path opacity="0.1" d="M211.769 529.224C237.671 529.224 258.669 524.847 258.669 519.448C258.669 514.049 237.671 509.672 211.769 509.672C185.866 509.672 164.868 514.049 164.868 519.448C164.868 524.847 185.866 529.224 211.769 529.224Z" fill="#F29544"/>
<path d="M265.764 260.952C265.752 260.889 265.727 260.833 265.692 260.789C264.974 259.871 255.829 243.086 255.829 243.086C255.829 243.086 255.348 241.212 254.568 238.776C254.818 238.356 255.006 237.88 255.122 237.371C255.164 237.155 255.194 236.936 255.213 236.715C255.213 236.646 255.252 236.59 255.266 236.521C255.433 235.674 255.417 234.783 255.218 233.947C255.164 234.162 255.099 234.371 255.021 234.572C254.84 233.844 254.597 233.145 254.299 232.486C253.086 229.775 251.353 227.488 250.077 224.846C248.146 220.741 247.378 215.89 247.907 211.129C247.907 211.372 247.907 211.622 247.907 211.866C247.955 210.922 248.051 209.982 248.195 209.055C248.397 207.999 248.665 206.967 248.999 205.969C250.145 202.565 251.998 199.597 253.124 196.181C253.502 195.028 253.789 193.829 253.981 192.601C254.378 190.551 254.522 188.432 254.409 186.323C254.409 186.823 254.347 187.323 254.289 187.816C254.167 182.746 252.59 177.918 249.866 174.28C245.933 169.152 240.287 167.159 234.887 166.109C232.617 165.766 230.45 164.692 228.581 162.986C226.507 161.243 223.826 160.825 221.4 161.206C218.612 161.597 216.021 163.259 214.089 165.897C211.523 169.558 210.411 174.742 207.418 177.828C205.603 179.702 203.302 180.577 201.189 181.851C199.076 183.125 197.079 184.974 196.4 187.71C196.4 187.71 196.4 187.673 196.4 187.654V187.81L196.371 187.91C195.668 191.146 197.026 194.438 197.733 197.667C198.47 201.009 198.518 204.538 198.556 207.993C198.609 212.216 198.657 216.444 198.604 220.673C198.58 222.335 198.537 224.015 198.441 225.671C197.302 226.118 196.195 226.695 195.134 227.395C194.056 228.307 190.022 233.96 190.022 233.96L182.134 273.076L182.239 273.232L182.134 273.763L182.533 273.645C183.65 275.206 186.985 279.654 190.586 282.427L190.923 290.098C190.923 290.098 191.327 297.794 196.78 300.973C196.905 303.641 197.295 314.472 195.49 318.764C194.24 321.899 193.653 325.408 193.786 328.933C193.786 328.933 194.417 335.442 193.7 338.865C193.281 341.153 193.25 343.532 193.608 345.837C193.608 345.837 193.608 346.592 193.608 347.892C193.608 354.819 193.671 377.02 193.608 379.531C193.517 382.498 193.608 426.38 193.608 426.38C193.608 426.38 193.161 448.312 191.726 454.252C190.292 460.193 190.653 479.863 190.653 479.863C190.653 479.863 189.753 503.294 192.934 507.917C192.934 508.123 192.906 508.335 192.901 508.542C192.901 508.635 192.901 508.741 192.901 508.835C192.862 510.615 193.127 512.508 194.306 513.089C196.713 514.288 199.894 517.887 200.496 518.917C201.098 519.948 204.597 522.515 209.16 521.828C212.018 521.411 214.895 521.24 217.771 521.316C217.771 521.316 219.571 520.891 218.989 517.986C218.613 516.175 217.208 513.389 216.207 511.559C216.389 511.621 216.568 511.671 216.736 511.715L216.909 511.759H217.044C217.118 511.764 217.192 511.764 217.265 511.759H217.362C217.451 511.768 217.542 511.768 217.631 511.759C218.839 511.609 223.345 514.332 224.148 516.131C224.952 517.93 227.787 519.298 229.924 519.642C231.195 519.842 234.401 519.504 237.091 519.055C238.446 518.873 239.788 518.556 241.106 518.105C241.741 517.793 241.876 516.793 241.693 515.669C241.477 514.241 240.889 512.953 240.027 512.021C239.248 511.303 238.218 509.41 237.457 507.861L237.255 507.442C238.598 505.781 241.024 500.346 241.76 499.222C242.655 497.854 240.316 447.825 240.316 447.825V422.745L243.902 399.008L246.41 386.446L248.561 367.481C248.561 367.481 252.325 345.331 251.165 343.157C251.165 343.113 250.203 320.307 249.192 314.828C248.754 312.386 248.864 306.889 249.124 301.542C249.396 301.192 249.585 300.749 249.671 300.264C249.756 299.78 249.733 299.274 249.606 298.806C249.534 298.486 249.44 298.174 249.327 297.875C249.327 297.781 249.327 297.681 249.327 297.588C251.406 296.346 253.579 295.387 255.81 294.727C259.396 293.815 258.501 291.416 258.501 291.416C258.501 291.416 259.309 289.361 259.843 288.105C260.378 286.85 259.935 275.768 259.843 274.856C259.81 274.488 259.588 272.451 259.333 270.14C260.484 269.078 261.981 267.76 263.612 266.511C266.717 264.125 266.019 261.607 265.764 260.952ZM218.979 419.321C218.979 419.321 216.288 428.229 217.367 430.509C218.445 432.789 217.188 441.253 217.188 441.253L216.288 453.815C216.288 453.815 213.781 477.115 214.676 482.593C215.379 486.891 215.639 499.728 215.72 505.081C215.659 505.112 215.599 505.15 215.542 505.193L215.422 505.275C215.836 503.17 215.663 498.909 213.607 490.339L213.434 454.94C213.434 454.94 213.116 414.049 215.605 409.477C218.093 404.904 218.974 397.14 218.974 397.14C218.974 397.14 218.435 408.34 218.084 411.307C217.732 414.274 218.979 419.321 218.979 419.321ZM213.968 507.311C213.944 507.386 213.915 507.461 213.896 507.53L213.761 507.305C213.83 507.313 213.899 507.315 213.968 507.311Z" fill="url(#paint0_linear)"/>
<path d="M241.409 521.341C240.018 522.034 232.475 523.215 230.367 522.884C228.259 522.553 225.467 521.166 224.673 519.354C223.879 517.543 219.427 514.807 218.233 514.982C217.744 515.001 217.255 514.912 216.789 514.719C215.965 514.396 215.161 513.995 214.382 513.52C214.274 512.733 214.292 511.924 214.435 511.146C214.463 510.99 214.498 510.835 214.541 510.684C214.822 509.659 215.403 508.82 216.158 508.348L216.332 508.242C216.665 508.055 217.014 507.916 217.371 507.83C221.155 506.886 236.764 508.779 236.764 508.779C236.764 508.779 237.202 509.797 237.804 511.059C238.554 512.621 239.575 514.526 240.345 515.244C241.198 516.191 241.777 517.486 241.986 518.917C242.169 520.023 242.034 521.035 241.409 521.341Z" fill="white"/>
<path opacity="0.1" d="M241.409 521.341C240.018 522.034 232.48 523.215 230.372 522.884C228.264 522.553 225.472 521.16 224.673 519.354C223.874 517.549 219.431 514.807 218.238 514.982C217.044 515.157 214.387 513.52 214.387 513.52C214.387 513.52 213.973 511.021 215.177 509.316L217.583 511.534C217.583 511.534 224.023 514.126 225.217 516.531C226.411 518.936 228.586 520.279 231.729 520.523C234.078 520.723 239.474 519.536 242.001 518.942C242.169 520.023 242.039 521.035 241.409 521.341Z" fill="black"/>
<path d="M218.368 524.527C215.528 524.455 212.689 524.628 209.867 525.045C205.348 525.732 201.897 523.171 201.295 522.115C200.693 521.06 197.579 517.493 195.187 516.244C194.017 515.656 193.743 513.745 193.796 511.959C193.796 511.865 193.796 511.759 193.796 511.665C193.84 510.533 193.969 509.41 194.181 508.31L212.909 507.792L214.531 510.647L214.782 511.084L215.768 512.827C215.768 512.827 216.216 513.589 216.803 514.701C217.795 516.575 219.181 519.342 219.552 521.172C220.144 524.102 218.368 524.527 218.368 524.527Z" fill="white"/>
<path opacity="0.1" d="M218.368 524.527C215.528 524.455 212.689 524.628 209.867 525.045C205.353 525.732 201.897 523.171 201.3 522.115C200.703 521.06 197.579 517.462 195.187 516.256C194.017 515.669 193.743 513.757 193.796 511.971C195.134 512.377 197.945 513.414 199.047 515.219C200.491 517.63 203.076 521.684 206.748 521.941C209.713 522.147 216.933 521.46 219.581 521.185C220.149 524.102 218.368 524.527 218.368 524.527Z" fill="black"/>
<path opacity="0.1" d="M216.139 508.323C215.922 510.409 215.253 510.972 214.772 511.096C214.654 511.126 214.533 511.126 214.416 511.096C214.352 511.091 214.29 511.078 214.228 511.059C214.228 511.059 197.411 515.881 194.012 511.977C193.926 511.877 193.846 511.768 193.772 511.652C193.816 510.521 193.945 509.397 194.157 508.298L212.885 507.78L214.507 510.634C214.788 509.609 215.369 508.77 216.124 508.298L216.139 508.323Z" fill="black"/>
<path opacity="0.1" d="M237.799 511.034C237.423 511.571 237.11 511.877 236.913 511.771C236.027 511.309 228.769 509.703 226.463 511.084C224.158 512.464 216.356 511.309 216.356 511.309C216.356 511.309 216.356 510.109 216.312 508.185C216.646 507.998 216.995 507.86 217.352 507.773C221.135 506.83 236.744 508.723 236.744 508.723C236.744 508.723 237.202 509.772 237.799 511.034Z" fill="black"/>
<path d="M248.782 369.736L246.655 388.813L244.181 401.456L240.638 425.356V450.654C240.638 450.654 242.939 500.989 242.054 502.364C241.168 503.738 237.803 511.565 236.918 511.109C236.032 510.653 228.774 509.041 226.468 510.416C224.163 511.79 216.36 510.647 216.36 510.647C216.36 510.647 216.182 491.114 215.297 485.598C214.411 480.082 216.89 456.639 216.89 456.639L217.776 444.002C217.776 444.002 219.017 435.494 217.954 433.195C216.89 430.896 219.547 421.951 219.547 421.951C219.547 421.951 218.31 416.885 218.666 413.899C219.022 410.914 219.547 399.651 219.547 399.651C219.547 399.651 218.666 407.472 216.206 412.063C213.747 416.654 214.06 457.8 214.06 457.8L214.233 493.406C218.666 512.258 214.233 510.416 214.233 510.416C214.233 510.416 197.415 515.244 194.017 511.334C190.619 507.423 191.591 482.812 191.591 482.812C191.591 482.812 191.24 463.048 192.655 457.076C194.07 451.104 194.518 429.035 194.518 429.035C194.518 429.035 194.426 384.903 194.518 381.923C194.585 379.424 194.518 357.055 194.518 350.065C194.518 348.766 194.518 347.998 194.518 347.998L196.549 341.451L220.615 337.541H232.129C232.129 337.541 249.456 342.826 251.247 345.106C251.285 345.144 251.318 345.19 251.343 345.243C252.503 347.448 248.782 369.736 248.782 369.736Z" fill="#F29544"/>
<path opacity="0.1" d="M219.561 469.944C219.561 469.944 224.856 486.491 227.354 487.64C229.852 488.79 219.561 469.944 219.561 469.944Z" fill="black"/>
<path opacity="0.1" d="M221.52 494.306C221.52 494.306 239.397 495.455 239.219 497.985C239.04 500.515 221.52 494.306 221.52 494.306Z" fill="black"/>
<path opacity="0.1" d="M197.603 487.69C198.311 488.559 211.239 490.189 210.175 491.776C209.112 493.362 198.667 496.448 198.667 496.448L197.603 487.69Z" fill="black"/>
<path opacity="0.1" d="M195.481 459.144C195.481 459.831 198.138 481.207 198.85 482.125C199.562 483.043 205.401 483.961 205.401 483.961L195.481 459.144Z" fill="black"/>
<path d="M214.758 166.965C212.221 170.644 211.124 175.86 208.168 178.971C206.373 180.845 204.101 181.738 202.012 183.013C199.923 184.287 197.854 186.23 197.233 189.116C196.54 192.364 197.878 195.681 198.58 198.929C199.307 202.29 199.35 205.8 199.394 209.317C199.442 213.571 199.495 217.825 199.437 222.079C199.35 228.707 198.927 235.64 196.217 241.256C206.002 245.298 216.409 245.847 226.671 246.366C228.643 246.548 230.624 246.483 232.586 246.172C234.286 245.732 235.969 245.18 237.625 244.517C240.901 243.392 244.277 242.831 247.666 242.849C249.144 242.849 250.65 242.968 252.075 242.468C253.5 241.968 254.871 240.688 255.256 238.839C255.598 237.177 255.098 235.409 254.443 233.916C253.249 231.193 251.555 228.919 250.275 226.233C248.968 223.396 248.192 220.2 248.011 216.903C247.829 213.605 248.247 210.299 249.23 207.25C250.366 203.82 252.195 200.834 253.312 197.399C254.456 193.71 254.76 189.673 254.188 185.766C253.616 181.86 252.193 178.248 250.087 175.361C246.203 170.201 240.629 168.202 235.296 167.14C233.05 166.796 230.908 165.722 229.067 164.017C227.022 162.268 224.37 161.843 221.973 162.23C219.208 162.632 216.646 164.313 214.758 166.965Z" fill="#3F3D56"/>
<g opacity="0.1">
<path opacity="0.1" d="M249.379 203.645C248.398 206.655 247.978 209.923 248.152 213.184C248.26 210.852 248.675 208.562 249.379 206.413C250.511 202.983 252.34 199.997 253.456 196.562C254.369 193.693 254.753 190.587 254.578 187.492C254.478 189.661 254.099 191.794 253.456 193.801C252.34 197.236 250.511 200.216 249.379 203.645Z" fill="black"/>
<path opacity="0.1" d="M199.538 208.468C199.567 210.916 199.596 213.371 199.601 215.82C199.601 212.447 199.577 209.08 199.538 205.713C199.5 202.221 199.451 198.685 198.725 195.318C198.243 193.182 197.531 191.015 197.281 188.859C196.852 191.92 198.07 195.025 198.725 198.079C199.451 201.415 199.5 204.976 199.538 208.468Z" fill="black"/>
<path opacity="0.1" d="M252.238 238.895C250.794 239.401 249.312 239.288 247.834 239.276C244.448 239.248 241.074 239.798 237.799 240.912C236.141 241.573 234.459 242.123 232.759 242.562C230.795 242.878 228.813 242.945 226.839 242.761C216.924 242.255 206.869 241.712 197.372 238.033C197.09 238.85 196.769 239.642 196.409 240.406C206.195 244.442 216.601 244.998 226.858 245.516C228.832 245.7 230.815 245.633 232.778 245.316C234.473 244.882 236.148 244.334 237.799 243.673C241.067 242.555 244.435 241.998 247.815 242.018C249.293 242.018 250.794 242.137 252.219 241.631C253.644 241.125 255.016 239.857 255.401 238.008C255.563 237.151 255.546 236.254 255.353 235.409C254.924 237.158 253.6 238.376 252.238 238.895Z" fill="black"/>
</g>
<path d="M237.981 231.493C237.625 232.53 236.124 241.487 235.767 242.405C235.411 243.324 233.467 258.022 233.289 258.846C233.11 259.671 220.471 255.398 220.471 255.398L212.861 247.122L205.04 237.021C205.04 237.021 204.809 227.907 210.57 224.984C210.962 224.784 211.364 224.621 211.773 224.496C218.762 222.316 218.059 194.738 218.059 194.738L232.403 202.777C232.403 202.777 229.746 218.868 229.837 221.973C229.862 223.016 230.492 223.666 231.315 224.059C232.588 224.529 233.913 224.715 235.233 224.609C235.233 224.609 238.338 230.462 237.981 231.493Z" fill="#FBBEBE"/>
<path d="M263.66 261.714L265.696 262.407C265.696 262.407 267.203 265.38 263.66 268.148C261.411 269.921 259.252 271.88 257.196 274.013L246.727 278.148L244.71 269.934L254.452 260.339L263.66 261.714Z" fill="#F29544"/>
<path opacity="0.1" d="M263.66 261.714L265.696 262.407C265.696 262.407 267.203 265.38 263.66 268.148C261.411 269.921 259.252 271.88 257.196 274.013L246.727 278.148L244.71 269.934L254.452 260.339L263.66 261.714Z" fill="black"/>
<path d="M187.26 269.647L183.188 274.819C183.188 274.819 190.533 285.85 196.183 286.538C201.834 287.225 205.478 278.148 205.478 278.148L200.587 268.154L187.26 269.647Z" fill="#F29544"/>
<path opacity="0.1" d="M187.26 269.647L183.188 274.819C183.188 274.819 190.533 285.85 196.183 286.538C201.834 287.225 205.478 278.148 205.478 278.148L200.587 268.154L187.26 269.647Z" fill="black"/>
<path opacity="0.1" d="M225.939 212.759C233.762 212.759 240.104 204.528 240.104 194.375C240.104 184.222 233.762 175.992 225.939 175.992C218.115 175.992 211.773 184.222 211.773 194.375C211.773 204.528 218.115 212.759 225.939 212.759Z" fill="black"/>
<path d="M225.939 211.379C233.762 211.379 240.104 203.148 240.104 192.995C240.104 182.842 233.762 174.611 225.939 174.611C218.115 174.611 211.773 182.842 211.773 192.995C211.773 203.148 218.115 211.379 225.939 211.379Z" fill="#FBBEBE"/>
<path opacity="0.1" d="M251.353 347.33C248.127 347.809 244.95 348.732 241.875 350.084C236.581 352.37 195.091 350.122 194.513 350.084C194.513 348.785 194.513 348.017 194.513 348.017L196.544 341.47L220.61 337.56H232.124C232.124 337.56 249.451 342.844 251.242 345.124C251.314 346.499 251.353 347.33 251.353 347.33Z" fill="black"/>
<path opacity="0.1" d="M237.981 231.493C237.625 232.53 236.124 241.487 235.767 242.405C235.411 243.324 233.467 258.022 233.289 258.846C233.11 259.671 220.471 255.398 220.471 255.398L212.861 247.122L205.04 237.021C205.04 237.021 204.809 227.907 210.57 224.984L224.875 246.328L231.315 224.059C232.588 224.529 233.913 224.715 235.233 224.609C235.233 224.609 238.338 230.462 237.981 231.493Z" fill="black"/>
<path d="M224.875 247.015L210.233 225.152C209.376 224.442 208.397 224.02 207.382 223.923C206.368 223.826 205.352 224.057 204.424 224.596C201.146 226.439 197.074 227.932 196.01 228.85C194.946 229.769 190.961 235.453 190.961 235.453L202.83 275.75L197.603 302.291C197.603 302.291 198.402 315.853 196.366 320.794C195.127 323.953 194.546 327.479 194.682 331.02C194.682 331.02 195.302 337.572 194.595 341.014C194.182 343.315 194.15 345.705 194.503 348.023C194.503 348.023 236.566 350.322 241.876 348.023C244.949 346.667 248.127 345.743 251.353 345.268C251.353 345.268 250.39 322.281 249.428 316.765C248.465 311.249 250.227 290.223 250.227 290.223L249.076 267.698L255.978 244.585C255.978 244.585 252.238 229.769 248.34 228.276C248.34 228.276 241.259 226.089 239.753 225.059C238.246 224.028 233.818 223.103 233.818 223.103L231.493 224.115L224.875 247.015Z" fill="#F29544"/>
<path opacity="0.1" d="M245.304 266.937L214.493 264.218C213.713 264.15 213.038 264.914 212.985 265.926L209.677 329.058C209.624 330.07 210.213 330.946 210.993 331.015L241.804 333.734C242.583 333.803 243.259 333.038 243.312 332.026L246.619 268.894C246.672 267.882 246.083 267.006 245.304 266.937Z" fill="black"/>
<path d="M246.365 265.566L215.554 262.847C214.774 262.778 214.099 263.543 214.046 264.555L210.738 327.687C210.685 328.699 211.274 329.575 212.054 329.644L242.865 332.363C243.645 332.432 244.32 331.667 244.373 330.655L247.68 267.523C247.733 266.511 247.144 265.635 246.365 265.566Z" fill="#3F3D56"/>
<path d="M245.348 270.515L216.045 267.929L213.034 325.402L242.336 327.988L245.348 270.515Z" fill="white"/>
<path opacity="0.1" d="M242.72 285.185L218.784 283.01L218.317 291.668L242.253 293.842L242.72 285.185Z" fill="black"/>
<path opacity="0.1" d="M241.854 319.59L238.056 319.255L237.819 323.767L241.618 324.102L241.854 319.59Z" fill="black"/>
<path opacity="0.1" d="M238.108 308.7L218.664 306.985L218.427 311.497L237.871 313.213L238.108 308.7Z" fill="black"/>
<path d="M241.721 268.366L221.475 266.579L221.112 273.516L241.358 275.302L241.721 268.366Z" fill="#3F3D56"/>
<path opacity="0.1" d="M241.721 268.366L221.475 266.579L221.112 273.516L241.358 275.302L241.721 268.366Z" fill="black"/>
<path opacity="0.1" d="M226.646 346.061C226.646 346.061 226.468 380.08 219.561 399.613C219.561 399.613 227.888 373.871 227.888 372.841C227.888 371.81 232.49 361.003 231.257 357.786C230.025 354.569 226.646 346.061 226.646 346.061Z" fill="black"/>
<path opacity="0.1" d="M227.022 188.397C226.757 185.386 227.325 182.351 228.625 179.833C228.47 182.357 229.02 184.869 230.174 186.91C231.328 188.951 233.009 190.386 234.911 190.952C234.748 190.769 234.633 190.527 234.579 190.257C234.524 189.987 234.534 189.703 234.607 189.44C235.594 190.89 236.35 192.608 237.467 193.882C238.583 195.156 240.258 195.918 241.572 195.012C243.358 193.763 243.377 190.471 242.915 187.91C241.924 182.456 239.889 177.414 237 173.249C236.279 171.99 235.343 170.965 234.266 170.255C233.189 169.544 231.999 169.166 230.791 169.152C228.057 168.877 225.217 169.189 222.767 170.782C221.388 171.758 220.097 172.929 218.916 174.274L212.178 181.407C211.529 182.014 210.974 182.772 210.541 183.644C210.252 184.372 210.079 185.169 210.031 185.986C209.859 188.322 210.192 190.675 210.993 192.779C211.794 194.883 213.031 196.656 214.565 197.898C214.533 196.052 214.924 194.235 215.689 192.677C216.455 191.12 217.559 189.893 218.863 189.153C219.068 189.375 219.233 189.651 219.348 189.962C219.464 190.273 219.526 190.613 219.532 190.958L220.952 187.673C221.163 187.075 221.496 186.563 221.915 186.192C222.791 185.568 223.884 186.305 224.63 187.185C225.376 188.066 226.102 189.166 227.104 189.303L227.142 184.412" fill="black"/>
<path d="M227.022 187.71C226.757 184.697 227.325 181.66 228.625 179.14C228.191 184.137 231.094 189.297 234.916 190.259C234.753 190.078 234.637 189.836 234.583 189.568C234.529 189.299 234.539 189.015 234.612 188.753C235.599 190.203 236.355 191.914 237.471 193.195C238.588 194.475 240.263 195.231 241.577 194.319C243.363 193.07 243.382 189.778 242.92 187.223C241.928 181.769 239.894 176.727 237.005 172.562C236.108 171.144 234.978 170.004 233.698 169.227C232.771 168.782 231.797 168.525 230.81 168.465C228.076 168.19 225.236 168.496 222.786 170.089C221.408 171.069 220.117 172.242 218.936 173.587L212.197 180.72C211.548 181.325 210.992 182.084 210.561 182.957C210.271 183.685 210.097 184.482 210.05 185.299C209.879 187.634 210.212 189.986 211.013 192.089C211.814 194.192 213.051 195.964 214.584 197.205C214.553 195.359 214.945 193.542 215.71 191.985C216.475 190.429 217.58 189.202 218.883 188.46C219.086 188.682 219.251 188.958 219.366 189.269C219.482 189.581 219.545 189.92 219.552 190.265L220.967 186.992C221.177 186.393 221.51 185.881 221.929 185.511C222.805 184.887 223.898 185.624 224.644 186.505C225.39 187.385 226.117 188.479 227.118 188.622L227.157 183.725" fill="#3F3D56"/>
<path d="M233.731 303.666C232.494 302.854 212.038 306.995 212.038 306.995C212.038 306.995 208.669 305.746 200.525 304.009C192.381 302.273 191.861 291.941 191.861 291.941L190.97 271.258L193.719 268.135L205.492 278.13C205.492 278.13 205.675 283.183 205.492 284.095C205.377 284.72 205.068 285.463 205.097 285.969C205.106 286.106 205.15 286.236 205.221 286.337C205.293 286.439 205.388 286.507 205.492 286.531C206.291 286.794 217.179 289.08 217.179 289.08C217.179 289.08 242.414 286.837 248.705 297.869C249.204 298.679 249.581 299.602 249.817 300.592C251.377 308.132 234.853 304.384 233.731 303.666Z" fill="#FBBEBE"/>
<path opacity="0.1" d="M249.832 300.636C248.869 301.192 248.272 301.592 248.272 301.592C248.272 301.592 239.243 301.248 234.17 298.862C229.096 296.476 222.931 296.901 222.931 296.901C222.931 296.901 201.791 292.178 205.069 286.013C205.078 286.15 205.121 286.279 205.192 286.381C205.264 286.483 205.359 286.551 205.463 286.575C206.262 286.837 217.15 289.124 217.15 289.124C217.15 289.124 242.386 286.881 248.677 297.913C249.191 298.718 249.583 299.642 249.832 300.636Z" fill="black"/>
<path d="M258.611 264.243C258.611 264.243 259.853 275.618 259.939 276.543C260.026 277.467 260.474 288.605 259.939 289.873C259.405 291.141 258.611 293.203 258.611 293.203C258.611 293.203 259.497 295.614 255.954 296.538C252.412 297.463 248.253 300.211 248.253 300.211C248.253 300.211 239.218 299.868 234.174 297.457C229.13 295.045 222.93 295.501 222.93 295.501C222.93 295.501 196.097 289.523 207.61 282.227C219.123 274.931 227.267 284.813 227.267 284.813L240.104 283.783C240.104 283.783 244.888 279.985 246.217 280.335C247.155 280.49 248.108 280.29 248.96 279.76L249.052 267.692L258.611 264.243Z" fill="#FBBEBE"/>
<path opacity="0.1" d="M193.517 236.321L190.947 236.146L183.159 275.5C183.159 275.5 191.567 272.739 195.192 275.5C198.816 278.261 205.463 278.829 205.463 278.829L202.984 247.459L193.517 236.321Z" fill="black"/>
<path d="M193.517 235.628L190.947 235.453L183.159 274.807C183.159 274.807 191.567 272.046 195.192 274.807C198.816 277.568 205.463 278.136 205.463 278.136L202.984 246.766L193.517 235.628Z" fill="#F29544"/>
<path opacity="0.1" d="M252.416 244.248L255.954 245.285C255.954 245.285 264.989 262.151 265.696 263.094C266.404 264.037 262.327 267.467 260.647 267.467C258.967 267.467 250.732 268.716 248.34 271.602C245.947 274.488 246.944 259.965 246.944 259.634C246.944 259.302 249.914 250.139 249.914 250.139L252.416 244.248Z" fill="black"/>
<path d="M252.416 243.561L255.954 244.592C255.954 244.592 264.989 261.489 265.696 262.407C266.404 263.325 262.327 266.78 260.647 266.78C258.967 266.78 250.732 268.029 248.34 270.915C245.947 273.801 246.944 259.277 246.944 258.946C246.944 258.615 249.933 249.42 249.933 249.42L252.416 243.561Z" fill="#F29544"/>
<g opacity="0.1">
<path opacity="0.1" d="M228.6 179.196C228.58 178.717 228.588 178.237 228.625 177.759C227.892 179.187 227.387 180.79 227.142 182.476V183.925C227.142 183.925 227.142 183.894 227.142 183.875V184.218C227.142 185.23 227.142 186.249 227.118 187.26H227.051V187.729C227.051 187.567 227.051 187.41 227.027 187.248C226.064 187.048 225.376 185.999 224.658 185.162C223.941 184.325 222.82 183.525 221.944 184.168C221.524 184.538 221.191 185.05 220.981 185.649L219.552 188.922C219.545 188.578 219.482 188.239 219.367 187.929C219.252 187.618 219.086 187.344 218.883 187.123C217.579 187.863 216.474 189.09 215.708 190.647C214.943 192.204 214.552 194.022 214.584 195.868C213.269 194.799 212.169 193.339 211.375 191.608C210.581 189.878 210.115 187.927 210.016 185.917C209.933 188.162 210.312 190.395 211.115 192.385C211.918 194.376 213.116 196.053 214.584 197.243C214.553 195.396 214.945 193.58 215.71 192.023C216.475 190.466 217.579 189.239 218.883 188.497C219.086 188.72 219.251 188.996 219.366 189.307C219.482 189.618 219.545 189.957 219.552 190.303L220.967 187.029C221.177 186.43 221.51 185.918 221.929 185.549C222.805 184.924 223.898 185.661 224.644 186.542C225.39 187.423 226.117 188.516 227.118 188.66C227.118 187.061 227.131 185.466 227.156 183.875C227.393 182.206 227.884 180.615 228.6 179.196Z" fill="black"/>
<path opacity="0.1" d="M226.974 185.486C226.998 185.062 227.036 184.637 227.084 184.237L227.137 182.513C226.993 183.492 226.938 184.49 226.974 185.486Z" fill="black"/>
<path opacity="0.1" d="M241.577 192.939C240.263 193.851 238.588 193.089 237.471 191.814C236.355 190.54 235.599 188.822 234.612 187.373C234.539 187.635 234.529 187.92 234.583 188.19C234.637 188.46 234.753 188.702 234.915 188.885C234.819 188.885 234.728 188.822 234.636 188.791C235.599 190.228 236.364 191.914 237.471 193.164C238.578 194.413 240.263 195.2 241.577 194.288C242.891 193.376 243.266 191.24 243.151 189.159C243.064 190.796 242.612 192.214 241.577 192.939Z" fill="black"/>
<path opacity="0.1" d="M234.607 188.778C232.998 188.209 231.561 187.015 230.489 185.356C229.417 183.697 228.761 181.652 228.61 179.496C228.336 184.4 231.185 189.316 234.915 190.259C234.757 190.08 234.642 189.843 234.587 189.58C234.533 189.316 234.54 189.037 234.607 188.778Z" fill="black"/>
</g>
<path d="M465.759 290.873C465.759 290.873 463.863 290.529 463.863 286.95C463.863 283.371 462.505 276.668 462.505 276.668C462.505 276.668 461.331 265.006 459.709 263.157C458.087 261.308 456.003 250.451 456.003 250.451C456.003 250.451 455.646 244.561 454.92 243.292C454.193 242.024 453.211 238.92 451.762 234.491C450.313 230.062 444.287 227.026 444.287 227.026C444.287 227.026 433.366 218.806 430.271 216.126C429.988 215.904 429.723 215.644 429.482 215.351C428.942 214.439 426.594 214.421 426.594 214.421C426.348 212.403 426.112 210.092 426.035 207.999C426.035 207.774 426.035 207.549 426.035 207.325C429.486 204.677 432.086 200.503 433.356 195.568C433.414 195.331 433.462 195.088 433.515 194.844C433.726 194.759 433.921 194.618 434.087 194.428C434.253 194.239 434.386 194.006 434.478 193.744C434.752 192.939 434.762 192.002 435.108 191.246C435.513 190.359 436.283 189.884 436.889 189.222C438.42 187.529 438.814 184.687 438.742 182.107C438.694 180.008 438.434 177.897 438.535 175.817C438.535 175.642 438.535 175.467 438.564 175.292C438.593 174.986 438.627 174.667 438.67 174.368C438.906 172.818 439.421 171.357 439.71 169.82C439.998 168.283 440.027 166.553 439.354 165.229C438.367 163.286 436.312 162.899 434.507 162.73C432.461 162.505 430.656 162.793 429.323 160.588C428.711 159.436 428.022 158.357 427.263 157.364C426.993 157.039 424.375 154.959 424.375 154.828C421.813 153.282 418.906 152.992 416.192 154.01C414.83 154.522 413.555 155.359 412.173 155.778C409.208 156.69 405.791 155.703 403.269 157.908C401.863 159.157 401.021 161.15 400.231 163.08C399.59 164.671 398.938 166.264 398.277 167.859C397.209 170.476 396.131 173.137 395.683 176.035C395.589 176.668 395.53 177.309 395.505 177.953C395.505 178.184 395.505 178.415 395.505 178.646C395.505 178.746 395.505 178.846 395.505 178.946C395.505 179.159 395.505 179.371 395.534 179.571C395.563 179.771 395.534 179.827 395.567 179.958C395.601 180.089 395.611 180.383 395.64 180.583C395.668 180.783 395.726 181.139 395.784 181.407C395.784 181.526 395.842 181.639 395.871 181.757C395.899 181.876 395.977 182.176 396.039 182.382C396.102 182.588 396.106 182.601 396.145 182.707C396.217 182.925 396.304 183.138 396.39 183.331C396.429 183.413 396.458 183.494 396.496 183.575C396.628 183.867 396.776 184.147 396.939 184.412C397.964 186.08 399.485 187.142 400.607 188.703C400.607 188.766 400.607 188.828 400.607 188.891C400.607 189.06 400.607 189.228 400.607 189.403C400.675 192.886 401.399 196.295 402.714 199.332C404.03 202.37 405.897 204.944 408.154 206.831C408.154 207.068 408.178 207.312 408.188 207.556C408.282 209.408 408.264 211.267 408.135 213.115C407.938 212.816 407.693 212.578 407.416 212.418C407.14 212.258 406.839 212.18 406.537 212.191C406.33 212.177 406.123 212.2 405.921 212.259L405.877 212.216V212.272C404.818 212.609 403.514 214.04 402.267 218.106C402.267 218.106 398.475 223.653 395.587 223.422C392.699 223.191 385.387 229.2 385.387 229.2C385.387 229.2 378.254 235.203 376.724 241.325C375.868 244.797 374.84 248.194 373.648 251.494L364.806 275.056L363.184 293.796C363.184 293.796 364.084 302.11 363.906 303.385C363.728 304.659 367.607 316.09 367.607 316.09C367.607 316.09 380.425 345.312 385.662 346.811L386.037 346.474C386.262 346.621 386.5 346.734 386.745 346.811L387.823 345.83C387.89 346.928 387.861 348.033 387.736 349.122C387.019 352.014 388.011 370.842 389.272 374.533C390.533 378.225 390.085 426.636 390.085 426.636L389.907 430.903C389.907 430.903 389.907 431.04 389.95 431.277L389.907 432.289L390.037 432.377C390.172 433.734 390.128 435.111 389.907 436.45C389.455 438.324 389.272 443.615 389.272 443.615C389.272 443.615 385.662 473.523 387.375 479.532C389.089 485.542 390.538 492.126 390.538 492.126C390.538 492.126 392.343 499.622 390.624 500.871C388.906 502.12 384.04 504.338 385.031 507.455C385.946 510.341 389.416 518.074 389.931 519.205L389.888 519.829L389.18 529.78C389.295 531.094 389.569 532.376 389.994 533.578C390.769 535.752 392.27 537.994 395.139 537.751C395.62 537.707 396.174 537.638 396.718 537.545C401.959 536.626 408.409 533.591 408.409 533.591C408.075 533.316 407.769 532.986 407.499 532.61C407.242 532.286 407.038 531.897 406.899 531.468C406.761 531.038 406.692 530.577 406.696 530.111C406.773 528.293 404.159 519.667 403.504 517.537L403.355 517.062C403.355 517.062 409.314 508.973 408.323 501.814C408.323 501.814 401.728 496.817 403.899 494.068C406.07 491.32 409.949 483.449 409.949 483.449C409.949 483.449 410.127 453.996 409.949 449.605C409.764 446.551 409.875 443.478 410.281 440.46C410.354 440.01 410.44 439.567 410.532 439.123C413.537 439.712 416.571 440.01 419.61 440.016C420.72 440.016 421.843 439.987 422.979 439.929C422.979 440.346 422.993 440.795 423.022 441.278C423.272 448.574 423.739 461.374 424.12 466.127C424.659 472.936 427.638 491.307 427.638 491.307C427.638 491.307 421.954 496.036 428.63 507.711C428.63 507.711 428.63 511.934 428.187 512.552C427.714 514.555 427.333 516.593 427.046 518.655C426.767 520.847 426.651 523.078 427.104 524.227C428.187 526.988 434.685 526.763 434.685 526.763C434.737 526.747 434.79 526.737 434.844 526.732C436.07 526.563 437.31 526.714 438.491 527.176C439.672 527.637 440.77 528.399 441.722 529.418C444.191 531.991 453.557 530.867 458.635 530.042C460.623 529.711 461.952 529.418 461.952 529.418C462.016 529.126 462.038 528.821 462.019 528.518C461.966 526.9 460.989 523.352 454.366 520.185C454.366 520.185 448.138 514.751 448.224 510.016H448.085H447.368C447.82 509.997 448.138 509.997 448.138 509.997C448.138 509.997 445.697 498.447 446.694 497.504C447.69 496.561 444.706 483.761 444.706 483.761C444.706 483.761 442.997 462.273 442.901 460.774C442.907 459.482 443.06 458.198 443.353 456.964L442.901 445.176C442.901 445.176 442.814 441.26 442.901 439.985C442.891 438.879 442.824 437.775 442.699 436.681C442.655 436.244 442.612 435.788 442.564 435.338C444.898 434.569 446.415 433.864 446.415 433.864L446.145 392.855C448.128 387.857 448.494 376.888 448.484 369.118C448.484 364.12 448.311 360.422 448.311 360.422L451.021 354.682C451.021 354.682 451.647 347.811 450.655 346.305C450.217 345.624 450.414 344.918 450.775 344.337C450.965 344.135 451.166 343.952 451.377 343.788C451.353 343.744 451.332 343.698 451.314 343.65C451.504 343.445 451.705 343.259 451.916 343.094C451.916 343.094 450.953 341.158 451.815 340.34C452.624 341.052 453.346 341.62 453.894 342.026C453.856 342.482 453.817 342.745 453.817 342.745L454.048 342.12C454.578 342.507 454.9 342.745 454.9 342.745C454.9 342.745 459.146 331.769 459.054 330.158C458.963 328.546 461.942 321.725 461.942 321.725C461.942 321.725 462.303 318.139 463.93 316.64C465.557 315.141 465.191 304.278 465.191 304.278C465.191 304.278 465.643 298.619 466.726 296.314C467.809 294.009 465.759 290.873 465.759 290.873ZM384.531 286.057L384.612 288.674C384.131 287.668 383.785 286.95 383.785 286.95L384.531 286.057Z" fill="url(#paint1_linear)"/>
<path d="M455.151 337.997L454.111 343.744C454.111 343.744 445.784 338.216 444.287 331.219C442.79 324.223 446.795 321.556 446.795 321.556L454.559 325.816L455.151 337.997Z" fill="white"/>
<path opacity="0.1" d="M455.151 337.997L454.111 343.744C454.111 343.744 445.784 338.216 444.287 331.219C442.79 324.223 446.795 321.556 446.795 321.556L454.559 325.816L455.151 337.997Z" fill="black"/>
<path d="M408.419 533.584C408.419 533.584 400.718 537.257 395.423 537.719C392.612 537.963 391.134 535.727 390.374 533.572C389.961 532.383 389.691 531.119 389.575 529.824L390.273 519.923L390.639 514.657L401.887 510.859L403.48 517.187L403.63 517.662C404.265 519.779 406.835 528.362 406.758 530.155C406.752 530.619 406.818 531.079 406.953 531.508C407.088 531.938 407.289 532.327 407.543 532.653C407.803 533.011 408.098 533.323 408.419 533.584Z" fill="white"/>
<path d="M460.999 528.549C461.019 528.852 460.996 529.157 460.931 529.449C460.931 529.449 444.46 533.01 441.091 529.449C440.144 528.409 439.04 527.637 437.85 527.182C436.66 526.727 435.41 526.599 434.179 526.807C434.179 526.807 427.807 527.032 426.743 524.308C426.3 523.165 426.416 520.947 426.69 518.767C426.97 516.717 427.343 514.689 427.807 512.696L428.062 512.433L429.578 510.853L447.329 510.172H447.464C447.377 514.882 453.485 520.285 453.485 520.285C459.988 523.409 460.946 526.938 460.999 528.549Z" fill="white"/>
<path opacity="0.1" d="M461.004 528.549C461.021 528.852 460.996 529.157 460.932 529.449C460.932 529.449 444.461 533.01 441.096 529.449C440.148 528.408 439.044 527.635 437.853 527.18C436.662 526.725 435.411 526.598 434.179 526.807C434.179 526.807 427.802 527.031 426.738 524.308C426.3 523.165 426.411 520.947 426.685 518.761C429.14 519.08 433.015 519.873 434.536 521.772C436.836 524.645 440.735 527.519 443.122 527.75C445.009 527.9 456.229 528.362 461.004 528.549Z" fill="black"/>
<path opacity="0.1" d="M408.419 533.584C408.419 533.584 400.717 537.257 395.423 537.719C392.612 537.963 391.134 535.727 390.374 533.572C392.338 534.427 395.057 535.321 396.487 534.502C398.181 533.522 404.188 532.897 407.557 532.628C407.811 532.994 408.101 533.315 408.419 533.584Z" fill="black"/>
<path d="M419.845 237.564C413.492 234.36 405.319 223.772 407.36 218.824C407.811 217.575 408.08 216.228 408.154 214.852C408.285 212.982 408.305 211.103 408.212 209.23C408.068 206.16 407.784 203.104 407.36 200.078C407.36 200.078 427.195 200.659 426.04 204.451C425.703 205.569 425.645 207.499 425.742 209.654C425.838 211.809 426.074 214.264 426.324 216.332C426.666 219.162 427.017 221.329 427.017 221.329C427.017 221.329 425.799 223.534 425.092 223.653C424.384 223.772 428.962 242.155 419.845 237.564Z" fill="#CF6F80"/>
<path opacity="0.1" d="M403.61 517.63L403.461 517.843C397.531 508.535 390.359 520.142 390.359 520.142L390.253 519.892L390.619 514.626L401.868 510.828L403.461 517.156L403.61 517.63Z" fill="black"/>
<path opacity="0.1" d="M447.473 510.828C447.473 510.828 443.142 510.715 440.831 513.364C438.521 516.012 427.354 513.932 427.835 513.364C427.976 513.075 428.062 512.748 428.086 512.408L429.602 510.828L447.353 510.147C447.421 510.584 447.473 510.828 447.473 510.828Z" fill="black"/>
<path d="M410.989 437.736C410.667 438.772 410.422 439.845 410.257 440.941C409.856 443.943 409.744 446.998 409.925 450.036C410.103 454.409 409.925 483.711 409.925 483.711C409.925 483.711 406.118 491.526 403.991 494.281C401.863 497.035 408.323 501.983 408.323 501.983C409.285 509.11 403.452 517.156 403.452 517.156C397.522 507.848 390.35 519.448 390.35 519.448C390.35 519.448 386.451 510.703 385.479 507.58C384.507 504.456 389.286 502.301 390.966 501.027C392.646 499.753 390.879 492.282 390.879 492.282C390.879 492.282 389.464 485.729 387.78 479.751C386.095 473.773 389.637 444.021 389.637 444.021C389.637 444.021 389.82 438.73 390.258 436.887C390.477 435.557 390.521 434.188 390.388 432.839C390.359 432.383 390.326 432.008 390.302 431.746C390.278 431.484 390.258 431.371 390.258 431.371L390.326 431.221L392.732 425.399C392.732 425.399 412.144 434.07 410.989 437.736Z" fill="#F29544"/>
<path d="M447.474 510.141C447.474 510.141 443.142 510.022 440.831 512.639C438.521 515.257 427.354 513.214 427.835 512.639C428.317 512.065 428.273 507.817 428.273 507.817C421.723 496.205 427.311 491.495 427.311 491.495C427.311 491.495 424.389 473.223 423.86 466.446C423.489 461.717 423.032 448.955 422.786 441.728C422.681 438.605 422.618 436.45 422.618 436.45L427.922 435.082L428.61 434.907L441.52 431.54C441.52 431.54 441.876 434.663 442.116 437.218C442.238 438.308 442.304 439.408 442.314 440.51C442.232 441.759 442.314 445.676 442.314 445.676L442.757 457.394C442.471 458.625 442.322 459.901 442.314 461.186C442.405 462.685 444.085 484.055 444.085 484.055C444.085 484.055 447.007 496.81 446.01 497.729C445.014 498.647 447.474 510.141 447.474 510.141Z" fill="#F29544"/>
<path opacity="0.1" d="M426.04 204.47C425.703 205.588 425.645 207.518 425.742 209.673C423.085 211.75 420.03 212.811 416.93 212.736C413.829 212.661 410.807 211.452 408.212 209.248C408.068 206.179 407.784 203.123 407.36 200.097C407.36 200.097 427.195 200.678 426.04 204.47Z" fill="black"/>
<path d="M433.698 190.677C433.75 196.345 432.066 201.807 429.015 205.863C425.964 209.919 421.796 212.235 417.429 212.303C413.062 212.371 408.853 210.185 405.728 206.225C402.603 202.266 400.818 196.857 400.766 191.19C400.766 191.015 400.766 190.852 400.766 190.677C400.766 185.008 402.501 179.571 405.59 175.562C408.679 171.554 412.868 169.302 417.237 169.302C421.605 169.302 425.794 171.554 428.883 175.562C431.972 179.571 433.708 185.008 433.708 190.677H433.698Z" fill="#CF6F80"/>
<path opacity="0.1" d="M419.845 237.564C413.492 234.36 405.319 223.772 407.36 218.825C407.811 217.575 408.08 216.228 408.154 214.852L416.852 224.134L422.233 229.862L426.324 216.351C426.666 219.181 427.017 221.348 427.017 221.348C427.017 221.348 425.799 223.553 425.092 223.672C424.384 223.791 428.962 242.156 419.845 237.564Z" fill="black"/>
<path d="M442.338 278.586L435.074 436.937L425.602 437.743L401.069 345.924L405.093 236.915L405.945 213.883L416.851 225.508L422.233 231.236L426.444 217.325L434.275 226.183L442.338 278.586Z" fill="#F29544"/>
<path opacity="0.1" d="M410.989 437.736C410.667 438.772 410.422 439.845 410.257 440.941C403.358 439.562 396.657 436.848 390.379 432.889L390.249 432.802L390.292 431.796V431.271L392.699 425.449C392.699 425.449 412.144 434.07 410.989 437.736Z" fill="black"/>
<path opacity="0.1" d="M428.081 440.966C426.319 441.357 424.542 441.622 422.757 441.759C422.651 438.636 422.589 436.481 422.589 436.481L427.922 435.082L428.081 440.966Z" fill="black"/>
<path opacity="0.1" d="M442.136 437.218C438.713 438.373 433.424 439.673 428.697 438.861L428.63 434.907L441.539 431.54C441.539 431.54 441.881 434.638 442.136 437.218Z" fill="black"/>
<path opacity="0.1" d="M428.61 439.585C408.876 443.958 390.802 431.421 390.802 431.421L390.975 427.173C390.975 427.173 391.423 379.018 390.181 375.327C388.94 371.635 387.972 352.939 388.675 350.084C389.378 347.229 386.109 304.128 386.109 304.128L385.58 286.637L366.187 276.412L374.851 252.968C376.021 249.682 377.027 246.302 377.864 242.849C379.371 236.758 386.364 230.78 386.364 230.78C386.364 230.78 393.536 224.809 396.371 225.034C399.206 225.258 402.922 219.749 402.922 219.749C405.666 210.673 408.149 214.752 408.149 214.752C408.149 215.189 408.149 214.752 408.014 216.095C407.052 226.058 423.58 257.541 423.816 258.103L425.409 307.863L427.003 370.835L428.61 439.585Z" fill="black"/>
<path d="M428.081 439.585C408.347 443.958 390.268 431.421 390.268 431.421L390.446 427.173C390.446 427.173 390.889 379.018 389.647 375.327C388.405 371.635 387.438 352.92 388.146 350.04C388.853 347.161 385.566 304.103 385.566 304.103L385.031 286.612L365.644 276.387L374.307 252.943C375.475 249.658 376.481 246.28 377.321 242.83C378.827 236.758 385.845 230.774 385.845 230.774C385.845 230.774 393.017 224.802 395.847 225.027C398.677 225.252 402.412 219.749 402.412 219.749C405.16 210.673 408.188 214.752 408.188 214.752C408.188 215.189 407.899 215.376 408.053 216.095C410.171 225.758 423.09 257.541 423.326 258.103L424.919 307.863L426.478 370.867L428.081 439.585Z" fill="white"/>
<path opacity="0.1" d="M422.762 259.509C420.64 258.359 409.396 241.699 409.396 241.699V237.908C408.987 236.658 406.551 237.421 404.583 238.295L405.43 215.264L406.392 216.301C408.496 225.958 422.531 258.953 422.762 259.509Z" fill="black"/>
<path d="M423.297 258.134C421.169 256.979 409.925 240.325 409.925 240.325V236.527C409.516 235.278 407.085 236.04 405.112 236.915L405.945 213.908L406.907 214.939C409.03 224.584 423.061 257.572 423.297 258.134Z" fill="white"/>
<path opacity="0.1" d="M390.802 341.214C391.067 341.214 404.525 339.378 404.525 339.378C404.525 339.378 412.674 360.179 412.139 365.232C411.605 370.286 410.638 374.771 407.36 373.977C404.082 373.184 389.719 374.602 389.719 374.602L390.802 341.214Z" fill="black"/>
<path d="M390.268 339.834C390.538 339.834 403.995 337.997 403.995 337.997C403.995 337.997 412.139 358.829 411.61 363.827C411.081 368.824 410.103 373.365 406.83 372.572C403.557 371.779 389.185 373.197 389.185 373.197L390.268 339.834Z" fill="white"/>
<path d="M400.41 330.095C400.41 330.095 412.76 338.715 413.025 341.339C413.29 343.963 406.739 340.19 405.324 339.727C404.392 339.44 403.444 339.248 402.489 339.153L393.05 339.484L400.41 330.095Z" fill="#CF6F80"/>
<path opacity="0.1" d="M419.311 260.583C420.029 260.583 420.611 259.828 420.611 258.896C420.611 257.965 420.029 257.21 419.311 257.21C418.594 257.21 418.012 257.965 418.012 258.896C418.012 259.828 418.594 260.583 419.311 260.583Z" fill="black"/>
<path d="M419.311 259.896C420.029 259.896 420.611 259.141 420.611 258.209C420.611 257.278 420.029 256.523 419.311 256.523C418.594 256.523 418.012 257.278 418.012 258.209C418.012 259.141 418.594 259.896 419.311 259.896Z" fill="#3F3D56"/>
<path opacity="0.1" d="M421.703 333.593C422.421 333.593 423.003 332.838 423.003 331.907C423.003 330.975 422.421 330.22 421.703 330.22C420.986 330.22 420.404 330.975 420.404 331.907C420.404 332.838 420.986 333.593 421.703 333.593Z" fill="black"/>
<path d="M421.703 332.9C422.421 332.9 423.003 332.145 423.003 331.213C423.003 330.282 422.421 329.527 421.703 329.527C420.986 329.527 420.404 330.282 420.404 331.213C420.404 332.145 420.986 332.9 421.703 332.9Z" fill="#3F3D56"/>
<path opacity="0.1" d="M420.611 297.088C421.328 297.088 421.91 296.333 421.91 295.402C421.91 294.47 421.328 293.715 420.611 293.715C419.893 293.715 419.311 294.47 419.311 295.402C419.311 296.333 419.893 297.088 420.611 297.088Z" fill="black"/>
<path d="M420.611 296.401C421.328 296.401 421.91 295.646 421.91 294.714C421.91 293.783 421.328 293.028 420.611 293.028C419.893 293.028 419.311 293.783 419.311 294.714C419.311 295.646 419.893 296.401 420.611 296.401Z" fill="#3F3D56"/>
<path d="M450.568 338.803C450.568 338.803 451.454 340.527 450.568 341.302C449.683 342.076 450.655 344.063 450.655 344.063C450.655 344.063 448.446 345.737 449.418 347.255C450.39 348.772 449.774 355.587 449.774 355.587L447.117 361.328C447.117 361.328 447.276 365.007 447.286 369.98C447.286 377.738 446.934 388.645 444.99 393.617L445.25 434.413C445.25 434.413 435.946 438.83 428.158 437.48L427.003 372.016C427.003 372.016 428.687 334.893 429.308 327.771C429.672 324.074 429.82 320.347 429.751 316.621C429.751 316.621 429.486 305.477 428.596 300.311C428.596 300.311 427.633 277.899 427.537 271.696C427.494 268.729 427.614 260.071 427.749 251.838C427.898 242.836 428.066 234.347 428.066 234.347L426.31 216.301C426.31 216.301 428.066 216.076 428.596 216.988C428.833 217.276 429.091 217.533 429.366 217.756C432.403 220.417 443.117 228.6 443.117 228.6C443.117 228.6 449.047 231.661 450.467 236.046C451.887 240.432 452.874 243.542 453.562 244.792C454.251 246.041 454.626 251.913 454.626 251.913C454.626 251.913 456.667 262.719 458.26 264.55C459.853 266.38 460.999 277.999 460.999 277.999L446.92 292.366C446.92 292.366 445.683 316.265 445.418 317.19C445.153 318.114 450.568 338.803 450.568 338.803Z" fill="white"/>
<path d="M451.103 338.803C451.103 338.803 451.983 340.527 451.103 341.301C450.222 342.076 451.184 344.062 451.184 344.062C451.184 344.062 448.975 345.737 449.947 347.254C450.92 348.772 450.304 355.587 450.304 355.587L447.656 361.328C447.656 361.328 447.815 365.007 447.83 369.98C447.83 377.738 447.478 388.644 445.534 393.617L445.798 434.413C445.798 434.413 436.494 438.83 428.707 437.48L427.556 372.016C427.556 372.016 429.236 334.893 429.862 327.771C430.226 324.074 430.372 320.347 430.3 316.621C430.3 316.621 430.035 305.477 429.149 300.311C429.149 300.311 428.187 277.899 428.086 271.696C428.042 268.729 428.163 260.071 428.297 251.838C428.447 242.836 428.615 234.347 428.615 234.347L426.295 216.057C426.295 216.057 428.615 216.057 429.149 216.988C429.384 217.279 429.643 217.536 429.92 217.756C432.952 220.417 443.666 228.6 443.666 228.6C443.666 228.6 449.582 231.661 451.026 236.046C452.47 240.431 453.432 243.542 454.121 244.792C454.809 246.041 455.184 251.913 455.184 251.913C455.184 251.913 457.225 262.719 458.818 264.55C460.411 266.38 461.562 277.998 461.562 277.998L447.483 292.366C447.483 292.366 446.246 316.265 445.977 317.19C445.707 318.114 451.103 338.803 451.103 338.803Z" fill="white"/>
<path opacity="0.1" d="M434.242 239.651L435.517 244.461L428.822 253.206C428.971 244.204 429.14 235.715 429.14 235.715L426.82 217.432C426.82 217.432 429.14 217.432 429.674 218.362C429.909 218.653 430.167 218.911 430.444 219.131L436.133 240.425L434.242 239.651Z" fill="black"/>
<path d="M433.698 238.27L434.973 243.074L428.283 251.819C428.427 242.818 428.601 234.329 428.601 234.329L426.276 216.039C426.276 216.039 428.601 216.039 429.13 216.969C429.366 217.258 429.624 217.516 429.9 217.738L435.623 239.051L433.698 238.27Z" fill="white"/>
<path opacity="0.1" d="M433.698 190.677C433.7 192.928 433.427 195.165 432.889 197.305C432.799 197.325 432.706 197.32 432.617 197.293C432.527 197.265 432.443 197.214 432.369 197.143C432.239 191.521 430.112 186.236 427.489 181.745C426.751 180.39 425.858 179.189 424.841 178.184C423.812 177.182 422.532 176.712 421.251 176.866C419.807 177.122 418.531 178.397 417.073 178.559C415.148 178.765 413.424 177.035 411.514 176.954C410.737 176.962 409.97 177.186 409.265 177.61C408.56 178.035 407.934 178.65 407.427 179.415C406.422 180.953 405.676 182.746 405.237 184.681C404.48 187.616 404.068 190.682 404.015 193.776C403.991 195.525 403.861 197.717 402.609 198.354C402.704 197.069 402.591 195.772 402.279 194.546C401.967 193.32 401.461 192.192 400.795 191.233L400.766 191.19C400.766 191.015 400.766 190.852 400.766 190.677C400.766 185.008 402.501 179.571 405.59 175.562C408.679 171.554 412.868 169.302 417.237 169.302C421.605 169.302 425.794 171.554 428.883 175.562C431.972 179.571 433.708 185.008 433.708 190.677H433.698Z" fill="black"/>
<path d="M424.071 156.74C421.57 155.213 418.726 154.924 416.072 155.928C414.739 156.44 413.482 157.271 412.13 157.689C409.242 158.595 405.873 157.614 403.394 159.807C402.017 161.056 401.189 163.03 400.419 164.954L398.494 169.708C397.445 172.312 396.386 174.961 395.948 177.828C395.51 180.695 395.774 183.906 397.175 186.217C398.191 187.891 399.702 188.947 400.809 190.527C401.474 191.491 401.978 192.623 402.29 193.852C402.601 195.08 402.713 196.38 402.619 197.667C403.87 197.043 403.995 194.838 404.024 193.089C404.078 189.995 404.49 186.929 405.247 183.994C405.686 182.059 406.432 180.266 407.437 178.728C407.943 177.962 408.57 177.346 409.274 176.92C409.979 176.495 410.746 176.27 411.523 176.26C413.449 176.348 415.177 178.078 417.083 177.866C418.527 177.709 419.807 176.435 421.26 176.179C422.542 176.022 423.823 176.492 424.851 177.497C425.869 178.499 426.76 179.7 427.494 181.058C430.122 185.555 432.254 190.815 432.379 196.455C432.923 196.968 433.708 196.293 433.977 195.494C434.247 194.694 434.256 193.757 434.598 192.995C434.993 192.114 435.748 191.639 436.34 190.977C437.842 189.297 438.218 186.467 438.16 183.9C438.102 181.332 437.717 178.728 438.092 176.204C438.319 174.661 438.829 173.206 439.108 171.675C439.387 170.145 439.421 168.427 438.761 167.109C437.799 165.179 435.772 164.791 434.006 164.61C431.999 164.385 430.204 164.673 428.923 162.48C428.321 161.338 427.644 160.263 426.902 159.27C426.637 158.938 424.071 156.877 424.071 156.74Z" fill="#512E4E"/>
<path opacity="0.1" d="M371.742 288.468L366.717 276.406L365.124 295.021C365.124 295.021 366.009 303.291 365.831 304.559C365.653 305.827 369.46 317.196 369.46 317.196C369.46 317.196 382.037 346.274 387.173 347.767L404.501 331.676L399.899 324.092C399.899 324.092 398.306 323.286 397.907 324.092C397.907 324.092 389.358 305.015 388.477 303.641C387.597 302.267 387.765 299.499 387.765 299.499C387.765 299.499 386.437 297.663 386.879 295.939C387.322 294.215 384.338 288.243 384.338 288.243L387.082 284.914L371.742 288.468Z" fill="black"/>
<path d="M366.981 275.025L365.653 276.406L364.06 295.021C364.06 295.021 364.945 303.291 364.767 304.559C364.589 305.827 368.401 317.196 368.401 317.196C368.401 317.196 380.974 346.274 386.109 347.767L403.466 331.676L398.86 324.092C398.86 324.092 397.266 323.286 396.867 324.092C396.867 324.092 388.323 305.015 387.438 303.641C386.552 302.267 386.73 299.499 386.73 299.499C386.73 299.499 385.402 297.663 385.845 295.939C386.287 294.215 383.274 288.243 383.274 288.243L386.018 284.914L366.981 275.025Z" fill="white"/>
<path opacity="0.1" d="M449.418 347.973C450.381 349.491 449.774 356.312 449.774 356.312L447.117 362.015C447.117 362.015 447.276 365.701 447.286 370.673L442.819 372.485C442.415 372.648 441.986 372.684 441.569 372.589C441.152 372.494 440.758 372.271 440.421 371.938C440.084 371.606 439.813 371.173 439.63 370.677C439.448 370.181 439.36 369.636 439.373 369.086L440.148 336.854L450.568 342.02C449.683 342.819 450.655 344.781 450.655 344.781C450.655 344.781 448.446 346.455 449.418 347.973Z" fill="black"/>
<path d="M449.948 347.286C450.91 348.797 450.304 355.619 450.304 355.619L447.656 361.328C447.656 361.328 447.815 365.007 447.83 369.98L443.281 371.822C442.886 371.983 442.467 372.019 442.06 371.926C441.652 371.834 441.267 371.617 440.937 371.292C440.607 370.967 440.342 370.545 440.164 370.06C439.985 369.575 439.899 369.042 439.912 368.505L440.687 336.161L451.103 341.339C450.212 342.138 451.185 344.1 451.185 344.1C451.185 344.1 448.975 345.768 449.948 347.286Z" fill="white"/>
<path d="M453.403 331.907C453.403 331.907 452.696 337.772 450.925 338.116C449.153 338.459 448.359 347.604 446.593 347.286C444.826 346.967 445.996 338.778 446.058 337.191C446.121 335.605 444.133 329.033 445.615 327.54C447.098 326.047 451.815 327.54 451.815 327.54L453.403 331.907Z" fill="#CF6F80"/>
<path opacity="0.1" d="M457.148 286.744L460.484 277.999C460.484 277.999 461.817 284.664 461.817 288.224C461.817 291.785 463.675 292.135 463.675 292.135C463.675 292.135 465.711 295.258 464.638 297.538C463.564 299.818 463.136 305.465 463.136 305.465C463.136 305.465 463.487 316.265 461.894 317.758C460.301 319.251 459.945 322.818 459.945 322.818C459.945 322.818 457.023 329.595 457.115 331.207C457.206 332.819 453.043 343.731 453.043 343.731C453.043 343.731 455.079 330.17 443.214 324.311C443.214 324.311 443.122 319.713 444.008 318.451C444.894 317.19 446.275 316.577 445.409 310.231C444.542 303.884 445.158 296.232 445.158 294.702C445.158 293.172 447.815 283.633 447.815 283.633L457.148 286.744Z" fill="black"/>
<path d="M458.631 276.749L461.547 277.998C461.547 277.998 462.881 284.664 462.881 288.224C462.881 291.785 464.739 292.135 464.739 292.135C464.739 292.135 466.775 295.258 465.701 297.538C464.628 299.818 464.195 305.465 464.195 305.465C464.195 305.465 464.551 316.265 462.958 317.758C461.364 319.251 461.032 322.818 461.032 322.818C461.032 322.818 458.111 329.595 458.202 331.207C458.294 332.819 454.125 343.731 454.125 343.731C454.125 343.731 456.161 330.17 444.297 324.311C444.297 324.311 444.21 319.713 445.096 318.451C445.981 317.19 447.363 316.577 446.496 310.231C445.63 303.884 446.246 296.232 446.246 294.702C446.246 293.171 448.903 283.633 448.903 283.633L458.631 276.749Z" fill="white"/>
<path opacity="0.1" d="M394.191 503.419C394.191 503.419 398.841 499.628 401.892 502.383C404.944 505.137 394.191 503.419 394.191 503.419Z" fill="black"/>
<path opacity="0.1" d="M430.329 491.695C430.329 491.695 434.444 491.007 437.9 495.836C441.356 500.665 430.329 491.695 430.329 491.695Z" fill="black"/>
<g opacity="0.1">
<path opacity="0.1" d="M436.34 189.603C435.748 190.272 434.988 190.74 434.593 191.621C434.256 192.377 434.247 193.314 433.977 194.119C433.708 194.925 432.923 195.594 432.374 195.081C432.249 189.459 430.117 184.181 427.494 179.683C426.76 178.328 425.869 177.129 424.851 176.129C423.822 175.122 422.539 174.65 421.256 174.805C419.812 175.061 418.541 176.335 417.083 176.498C415.157 176.704 413.429 174.974 411.518 174.892C410.742 174.9 409.976 175.124 409.272 175.548C408.568 175.973 407.942 176.588 407.437 177.354C406.432 178.892 405.686 180.685 405.247 182.619C404.49 185.554 404.078 188.62 404.024 191.714C403.995 193.457 403.87 195.631 402.628 196.281C402.657 196.744 402.657 197.21 402.628 197.674C403.885 197.049 404.01 194.844 404.039 193.095C404.093 190.001 404.505 186.935 405.261 184C405.701 182.066 406.446 180.272 407.451 178.734C407.957 177.969 408.583 177.353 409.287 176.928C409.99 176.502 410.756 176.277 411.533 176.267C413.458 176.354 415.191 178.084 417.097 177.872C418.541 177.716 419.821 176.442 421.27 176.185C422.553 176.028 423.835 176.498 424.866 177.503C425.883 178.506 426.775 179.707 427.508 181.064C430.131 185.562 432.264 190.821 432.389 196.462C432.937 196.974 433.722 196.299 433.992 195.5C434.261 194.7 434.271 193.763 434.608 193.001C435.002 192.12 435.763 191.646 436.355 190.984C437.857 189.303 438.232 186.474 438.174 183.906C438.174 183.825 438.174 183.75 438.174 183.669C438.078 185.905 437.621 188.173 436.34 189.603Z" fill="black"/>
<path opacity="0.1" d="M400.804 189.166C399.702 187.585 398.191 186.523 397.175 184.849C396.317 183.372 395.828 181.588 395.774 179.74C395.623 182.051 396.121 184.356 397.175 186.23C398.191 187.904 399.702 188.96 400.804 190.54C401.869 192.085 402.509 194.045 402.624 196.112C402.696 194.855 402.572 193.592 402.26 192.398C401.947 191.205 401.452 190.105 400.804 189.166Z" fill="black"/>
<path opacity="0.1" d="M439.108 170.301C438.824 171.831 438.319 173.287 438.088 174.83C437.949 175.873 437.899 176.933 437.938 177.991C437.954 177.393 438.004 176.798 438.088 176.21C438.319 174.667 438.824 173.212 439.108 171.682C439.271 170.837 439.325 169.963 439.267 169.095C439.236 169.502 439.183 169.905 439.108 170.301Z" fill="black"/>
</g>
<path opacity="0.1" d="M63.8862 524.014C89.7885 524.014 110.786 519.638 110.786 514.238C110.786 508.839 89.7885 504.463 63.8862 504.463C37.9838 504.463 16.9858 508.839 16.9858 514.238C16.9858 519.638 37.9838 524.014 63.8862 524.014Z" fill="#F29544"/>
<path d="M65.3975 326.959H62.3796V415.143H65.3975V326.959Z" fill="#535461"/>
<path d="M84.3667 414.88L84.1742 418.853L83.9095 424.475L83.7988 426.811L83.5292 432.433L83.4137 434.769L83.149 440.391L80.1022 504.15C79.9723 506.893 79.0409 509.469 77.4981 511.352C75.9552 513.235 73.9171 514.283 71.7993 514.282H55.9782C53.8546 514.283 51.8111 513.23 50.2672 511.338C48.7232 509.445 47.7958 506.858 47.6753 504.107L44.6285 440.347L44.3638 434.726L44.2531 432.389L43.9787 426.767L43.868 424.431L43.6033 418.809L43.4108 414.836C43.3775 414.075 43.4639 413.313 43.6648 412.596C43.8657 411.879 44.1769 411.223 44.5795 410.667C44.982 410.111 45.4675 409.668 46.0063 409.363C46.5452 409.059 47.1261 408.9 47.7138 408.896H80.0685C80.6588 408.9 81.2422 409.061 81.7829 409.369C82.3235 409.676 82.8101 410.124 83.2126 410.684C83.6151 411.245 83.9251 411.906 84.1236 412.628C84.322 413.349 84.4048 414.116 84.3667 414.88Z" fill="#3F3D56"/>
<path d="M84.1741 418.847L83.9046 424.456H43.8679L43.5984 418.847H84.1741Z" fill="#9D9CB5"/>
<path d="M83.7937 426.792L83.529 432.402H44.2481L43.9785 426.792H83.7937Z" fill="#9D9CB5"/>
<path d="M83.4136 434.744L83.1489 440.348H44.6284L44.3589 434.744H83.4136Z" fill="#9D9CB5"/>
<path d="M39.0114 360.016C56.5894 376.52 63.9103 402.331 63.9103 402.331C63.9103 402.331 42.732 401.388 25.1492 384.884C7.56642 368.381 0.23584 342.588 0.23584 342.588C0.23584 342.588 21.4141 343.513 39.0114 360.016Z" fill="#F29544"/>
<path d="M0.23584 342.588C0.23584 342.588 22.218 358.424 29.2694 371.535C36.3208 384.647 63.8911 402.343 63.8911 402.343" stroke="#535461" stroke-width="2" stroke-miterlimit="10"/>
<path d="M50.337 326.772C59.9057 335.748 63.8911 349.797 63.8911 349.797C63.8911 349.797 52.3393 349.285 42.7946 340.308C33.2499 331.332 29.2405 317.277 29.2405 317.277C29.2405 317.277 40.773 317.789 50.337 326.772Z" fill="#F29544"/>
<path d="M29.2405 317.277C29.2405 317.277 41.2062 325.897 45.0472 333.031C48.8882 340.165 63.8911 349.797 63.8911 349.797" stroke="#535461" stroke-width="2" stroke-miterlimit="10"/>
<path d="M77.7917 349.085C66.8031 364.757 64.4783 385.24 64.4783 385.24C64.4783 385.24 79.9721 380.305 90.9511 364.626C101.93 348.947 104.265 328.471 104.265 328.471C104.265 328.471 88.7804 333.412 77.7917 349.085Z" fill="#F29544"/>
<path d="M104.274 328.477C104.274 328.477 89.9596 344.544 86.3208 355.612C82.682 366.681 64.4783 385.24 64.4783 385.24" stroke="#535461" stroke-width="2" stroke-miterlimit="10"/>
</g>
<defs>
<linearGradient id="paint0_linear" x1="224.071" y1="521.941" x2="224.071" y2="161.106" gradientUnits="userSpaceOnUse">
<stop stop-color="#808080" stop-opacity="0.25"/>
<stop offset="0.54" stop-color="#808080" stop-opacity="0.12"/>
<stop offset="1" stop-color="#808080" stop-opacity="0.1"/>
</linearGradient>
<linearGradient id="paint1_linear" x1="91586.1" y1="338160" x2="91586.1" y2="101650" gradientUnits="userSpaceOnUse">
<stop stop-color="#808080" stop-opacity="0.25"/>
<stop offset="0.54" stop-color="#808080" stop-opacity="0.12"/>
<stop offset="1" stop-color="#808080" stop-opacity="0.1"/>
</linearGradient>
<clipPath id="clip0">
<rect width="562" height="539" fill="white"/>
</clipPath>
</defs>
</svg>
