<svg width="662" height="536" viewBox="0 0 662 536" fill="none" xmlns="http://www.w3.org/2000/svg">
<g clip-path="url(#clip0)">
<path d="M172.565 74.523H32.4031V189.938H172.565V74.523Z" fill="#F29544"/>
<path d="M420.485 225.098H32.4031V237.327H420.485V225.098Z" fill="#F2F2F2"/>
<path d="M162.768 67.644H22.6067V183.059H162.768V67.644Z" stroke="#3F3D56" stroke-miterlimit="10"/>
<path d="M363.968 106.243H228.328V118.473H363.968V106.243Z" fill="#F2F2F2"/>
<path d="M420.485 139.11H228.328V151.339H420.485V139.11Z" fill="#F2F2F2"/>
<path d="M354.172 99.3641H218.531V111.594H354.172V99.3641Z" stroke="#3F3D56" stroke-miterlimit="10"/>
<path d="M410.689 132.231H218.531V144.46H410.689V132.231Z" stroke="#3F3D56" stroke-miterlimit="10"/>
<path d="M410.689 218.219H22.6067V230.448H410.689V218.219Z" stroke="#3F3D56" stroke-miterlimit="10"/>
<path d="M420.485 263.315H32.4031V275.544H420.485V263.315Z" fill="#F2F2F2"/>
<path d="M410.689 256.436H22.6067V268.665H410.689V256.436Z" stroke="#3F3D56" stroke-miterlimit="10"/>
<path d="M420.485 301.532H32.4031V313.761H420.485V301.532Z" fill="#F2F2F2"/>
<path d="M410.689 294.653H22.6067V306.882H410.689V294.653Z" stroke="#3F3D56" stroke-miterlimit="10"/>
<path d="M420.485 339.749H32.4031V351.978H420.485V339.749Z" fill="#F2F2F2"/>
<path d="M410.689 332.87H22.6067V345.099H410.689V332.87Z" stroke="#3F3D56" stroke-miterlimit="10"/>
<path d="M420.485 377.966H32.4031V390.195H420.485V377.966Z" fill="#F2F2F2"/>
<path d="M410.689 371.087H22.6067V383.316H410.689V371.087Z" stroke="#3F3D56" stroke-miterlimit="10"/>
<path d="M420.485 416.183H32.4031V428.412H420.485V416.183Z" fill="#F2F2F2"/>
<path d="M410.689 409.304H22.6067V421.533H410.689V409.304Z" stroke="#3F3D56" stroke-miterlimit="10"/>
<path d="M442.715 0.382172H0.376709V495.674H442.715V0.382172Z" stroke="#3F3D56" stroke-miterlimit="10"/>
<path d="M611.781 442.36C614.017 443.185 616.41 443.471 618.774 443.197C621.137 442.923 623.405 442.096 625.4 440.781C627.394 439.466 629.06 437.699 630.266 435.62C631.473 433.54 632.186 431.205 632.351 428.798C632.516 426.391 632.127 423.978 631.216 421.75C630.304 419.521 628.895 417.538 627.099 415.956C625.303 414.374 623.169 413.237 620.866 412.634C618.563 412.031 616.153 411.979 613.827 412.482L614.211 420.501L610.471 413.629C606.8 415.378 603.964 418.534 602.586 422.404C602.097 423.759 601.8 425.178 601.703 426.618C601.467 429.996 602.323 433.361 604.142 436.202C605.96 439.043 608.642 441.205 611.781 442.36Z" fill="#57B894"/>
<path d="M630.288 535.361C628.967 528.542 634.688 522.496 640.339 518.567C645.991 514.637 652.594 510.776 654.522 504.107C657.293 494.523 649.038 485.746 642.614 478.177C637.848 472.559 633.754 466.389 630.42 459.795C628.97 457.204 627.983 454.375 627.503 451.436C626.997 447.188 628.342 442.96 629.698 438.908C634.214 425.409 639.042 412.022 644.183 398.749" stroke="#3F3D56" stroke-miterlimit="10"/>
<path d="M612.413 440.296C614.649 441.12 617.043 441.407 619.406 441.133C621.769 440.858 624.038 440.031 626.032 438.716C628.026 437.401 629.692 435.635 630.899 433.555C632.105 431.476 632.819 429.141 632.983 426.734C633.148 424.327 632.76 421.914 631.848 419.685C630.937 417.457 629.528 415.473 627.731 413.891C625.935 412.309 623.802 411.172 621.498 410.57C619.195 409.967 616.785 409.915 614.459 410.418L614.843 418.436L611.103 411.564C607.432 413.314 604.596 416.47 603.219 420.339C602.729 421.695 602.432 423.113 602.335 424.553C602.099 427.932 602.955 431.297 604.774 434.137C606.593 436.978 609.275 439.14 612.413 440.296V440.296Z" stroke="#3F3D56" stroke-miterlimit="10"/>
<path d="M628.41 395.98C629.288 393.525 630.76 391.333 632.692 389.606C634.624 387.88 636.953 386.674 639.465 386.101L640.73 393.724L643.074 385.718C646.33 385.767 649.485 386.864 652.086 388.85C654.686 390.837 656.597 393.611 657.542 396.771C658.488 399.931 658.418 403.314 657.344 406.431C656.27 409.549 654.248 412.239 651.568 414.115C648.888 415.99 645.69 416.953 642.436 416.865C639.181 416.776 636.039 415.641 633.462 413.623C630.885 411.605 629.006 408.808 628.099 405.637C627.191 402.466 627.3 399.084 628.41 395.98Z" fill="#57B894"/>
<path d="M629.254 393.227C630.131 390.772 631.604 388.58 633.536 386.854C635.467 385.127 637.797 383.922 640.309 383.348L641.573 390.971L643.918 382.965C647.173 383.014 650.329 384.111 652.929 386.098C655.53 388.085 657.441 390.858 658.386 394.018C659.331 397.178 659.262 400.561 658.188 403.679C657.114 406.796 655.091 409.487 652.411 411.362C649.732 413.237 646.534 414.2 643.279 414.112C640.025 414.024 636.882 412.888 634.305 410.87C631.728 408.852 629.85 406.056 628.942 402.885C628.034 399.713 628.143 396.332 629.254 393.227V393.227Z" stroke="#3F3D56" stroke-miterlimit="10"/>
<path d="M639.918 478.331C643.463 479.636 647.358 479.571 650.859 478.15C654.361 476.729 657.224 474.051 658.904 470.626C660.584 467.201 660.963 463.269 659.968 459.579C658.973 455.889 656.675 452.7 653.511 450.618L651.709 456.771L650.432 449.058C650.419 449.052 650.406 449.047 650.392 449.043C648.496 448.344 646.483 448.031 644.467 448.121C642.451 448.212 640.473 448.704 638.645 449.57C636.817 450.437 635.175 451.66 633.814 453.17C632.452 454.68 631.397 456.448 630.709 458.371C630.021 460.295 629.713 462.338 629.804 464.382C629.894 466.427 630.381 468.433 631.236 470.287C632.091 472.14 633.298 473.805 634.788 475.185C636.277 476.565 638.021 477.634 639.918 478.331Z" fill="#57B894"/>
<path d="M640.649 475.543C644.194 476.847 648.089 476.783 651.59 475.362C655.092 473.941 657.956 471.263 659.635 467.838C661.315 464.413 661.694 460.481 660.699 456.791C659.705 453.101 657.406 449.912 654.242 447.83L652.44 453.983L651.163 446.27C651.15 446.264 651.137 446.259 651.124 446.255C649.227 445.556 647.214 445.243 645.199 445.334C643.183 445.425 641.205 445.917 639.377 446.784C637.55 447.65 635.908 448.873 634.547 450.383C633.185 451.893 632.13 453.661 631.442 455.584C630.754 457.508 630.447 459.55 630.537 461.594C630.627 463.639 631.114 465.645 631.969 467.498C632.824 469.352 634.03 471.016 635.52 472.397C637.009 473.777 638.752 474.846 640.649 475.543V475.543Z" stroke="#3F3D56" stroke-miterlimit="10"/>
<path d="M623.928 504.203C624.538 507.721 626.322 510.92 628.98 513.262C631.639 515.605 635.011 516.949 638.531 517.069C642.051 517.189 645.504 516.078 648.312 513.923C651.12 511.767 653.112 508.697 653.954 505.228C654.795 501.759 654.435 498.103 652.934 494.871C651.433 491.64 648.883 489.03 645.71 487.48C642.537 485.929 638.935 485.533 635.508 486.356C632.081 487.18 629.038 489.174 626.888 492.003L633.731 502.45L624.381 496.905C623.656 499.266 623.501 501.769 623.928 504.203Z" fill="#57B894"/>
<path d="M624.561 502.138C625.17 505.656 626.954 508.855 629.613 511.198C632.272 513.54 635.644 514.885 639.163 515.005C642.683 515.125 646.137 514.014 648.945 511.858C651.753 509.702 653.745 506.632 654.586 503.164C655.428 499.695 655.068 496.038 653.567 492.807C652.066 489.575 649.515 486.966 646.342 485.415C643.169 483.865 639.568 483.468 636.141 484.292C632.714 485.116 629.67 487.109 627.521 489.939L634.364 500.386L625.014 494.841C624.289 497.201 624.133 499.704 624.561 502.138V502.138Z" stroke="#3F3D56" stroke-miterlimit="10"/>
<path d="M443.092 179.62C443.092 179.62 452.511 199.875 451.004 205.989C450.122 209.706 450.521 213.617 452.134 217.072L469.466 216.308L485.668 200.639C485.668 200.639 461.177 183.441 462.684 175.034C464.191 166.626 443.092 179.62 443.092 179.62Z" fill="#A0616A"/>
<path d="M486.798 211.722L494.333 259.111C494.333 259.111 494.333 301.914 492.073 302.678C489.812 303.443 480.016 302.678 480.016 302.678V254.525L483.03 212.486L486.798 211.722Z" fill="#F29544"/>
<path opacity="0.1" d="M486.798 211.722L494.333 259.111C494.333 259.111 494.333 301.914 492.073 302.678C489.812 303.443 480.016 302.678 480.016 302.678V254.525L483.03 212.486L486.798 211.722Z" fill="black"/>
<path d="M532.011 489.941L538.04 513.636L547.082 506.757L555.372 487.648L544.822 474.655L532.011 489.941Z" fill="#A0616A"/>
<path d="M555.372 484.591C555.372 484.591 545.575 492.234 545.575 499.878C545.575 499.878 540.3 508.285 534.272 507.521V523.572C534.272 523.572 515.433 533.509 529.751 535.802C544.068 538.095 554.618 519.751 554.618 519.751C554.618 519.751 568.182 497.585 565.921 494.527C563.661 491.47 555.372 484.591 555.372 484.591Z" fill="#3F3D56"/>
<path d="M486.742 299.066C486.742 299.066 501.116 314.908 494.334 339.367C494.334 339.367 486.798 394.399 510.912 415.036C535.026 435.673 550.85 480.769 550.85 480.769L532.765 497.585C532.765 497.585 513.172 452.489 492.826 434.909C472.48 417.329 470.22 397.456 470.22 397.456V327.901L466.452 298.857L486.742 299.066Z" fill="#3F3D56"/>
<path opacity="0.1" d="M486.742 299.066C486.742 299.066 501.116 314.908 494.334 339.367C494.334 339.367 486.798 394.399 510.912 415.036C535.026 435.673 550.85 480.769 550.85 480.769L532.765 497.585C532.765 497.585 513.172 452.489 492.826 434.909C472.48 417.329 470.22 397.456 470.22 397.456V327.901L466.452 298.857L486.742 299.066Z" fill="black"/>
<path d="M467.959 507.521L460.423 515.929L463.438 522.808L472.48 525.865L488.305 519.751L486.044 510.578L467.959 507.521Z" fill="#A0616A"/>
<path d="M490.566 515.929C490.566 515.929 472.48 525.101 467.959 521.279C466.653 520.22 465.578 518.897 464.802 517.395C464.026 515.893 463.566 514.243 463.45 512.551C463.45 512.551 454.395 513.636 448.366 517.458C442.338 521.279 437.817 525.865 430.281 525.865C422.745 525.865 425.76 535.037 440.077 535.802C454.395 536.566 490.566 535.037 490.566 531.216V515.929Z" fill="#3F3D56"/>
<path d="M439.324 308.793C439.324 308.793 429.528 353.125 446.859 403.571C446.859 403.571 455.149 431.852 458.916 440.259C462.684 448.667 466.452 508.285 464.945 510.578C464.945 510.578 477.002 520.515 487.551 513.636C487.551 513.636 486.798 478.476 488.305 475.419C489.812 472.362 491.319 445.61 482.277 423.444C473.234 401.278 480.769 347.774 480.769 347.774C480.769 347.774 498.855 320.258 485.291 304.207L439.324 308.793Z" fill="#3F3D56"/>
<path d="M450.627 184.97C462.28 184.97 471.727 175.388 471.727 163.569C471.727 151.749 462.28 142.167 450.627 142.167C438.974 142.167 429.528 151.749 429.528 163.569C429.528 175.388 438.974 184.97 450.627 184.97Z" fill="#A0616A"/>
<path d="M489.812 303.442C489.812 303.442 483.784 312.614 479.262 308.028C476.075 304.795 455.668 311.82 443.898 316.245C438.97 318.095 435.556 319.494 435.556 319.494C435.556 319.494 435.232 308.9 434.275 295.486C433.175 280.092 431.246 260.968 428.02 249.939C421.992 229.302 437.063 220.894 437.063 220.894C437.063 220.894 449.873 205.607 449.12 203.314C448.366 201.021 483.03 189.556 483.03 189.556C486.798 190.32 489.812 224.715 489.812 224.715C489.812 224.715 483.03 252.232 479.262 269.047C475.494 285.863 489.812 303.442 489.812 303.442Z" fill="#F29544"/>
<path d="M425.006 304.207C425.006 304.207 408.428 321.022 400.139 325.608C391.85 330.194 387.328 345.481 394.11 348.539C400.892 351.596 415.964 331.723 415.964 331.723L437.817 313.379L425.006 304.207Z" fill="#A0616A"/>
<path d="M428.139 150.787C426.211 150.961 425.11 153.423 425.732 155.282C426.354 157.141 428.142 158.357 429.968 159.006C431.794 159.656 433.747 159.879 435.575 160.522C437.393 161.197 439.08 162.19 440.559 163.458C445.767 167.785 448.852 174.377 449.833 181.133C450.815 187.889 449.837 194.812 447.985 201.377C447.004 204.855 445.403 208.667 442.051 209.903C445.715 208.985 449.295 207.754 452.753 206.222C455.288 205.011 457.666 203.478 460.228 202.328C464.02 200.759 467.999 199.701 472.062 199.18C474.915 198.73 477.931 198.386 480.609 199.478C482.253 200.253 483.765 201.287 485.089 202.542L493.706 209.885C493.856 206.693 493.955 203.498 494.003 200.301C494.045 197.523 494.035 194.664 493.025 192.081C492.029 189.531 490.136 187.452 488.87 185.028C485.737 179.03 486.758 171.804 486.816 165.017C486.876 157.989 485.761 150.827 482.553 144.598C479.345 138.368 473.868 133.152 467.188 131.287C458.183 128.773 448.691 132.514 440.415 136.903C438.467 137.842 436.652 139.041 435.016 140.467C433.277 142.269 431.799 144.313 430.627 146.537L426.53 153.502" fill="#3F3D56"/>
<path opacity="0.1" d="M481.523 232.359C481.523 232.359 467.206 287.391 465.698 291.213C464.613 293.957 451.848 308.556 443.898 316.245C438.97 318.095 435.556 319.494 435.556 319.494C435.556 319.494 435.232 308.9 434.275 295.486C440.409 288.584 446.86 282.041 446.86 282.041C446.86 282.041 453.642 240.002 452.888 223.951C452.134 207.9 467.959 204.078 467.959 204.078C486.045 206.371 481.523 232.359 481.523 232.359Z" fill="black"/>
<path d="M465.698 201.021C465.698 201.021 449.874 204.843 450.627 220.894C451.381 236.945 444.599 278.984 444.599 278.984C444.599 278.984 418.978 304.971 421.238 308.029C423.499 311.086 433.185 317.097 435.501 317.913C437.817 318.729 461.931 291.978 463.438 288.156C464.945 284.334 479.262 229.302 479.262 229.302C479.262 229.302 483.784 203.314 465.698 201.021Z" fill="#F29544"/>
<path d="M383.938 535.419H662" stroke="#3F3D56" stroke-miterlimit="10"/>
</g>
<defs>
<clipPath id="clip0">
<rect width="662" height="536" fill="white"/>
</clipPath>
</defs>
</svg>
